<?xml version="1.0" encoding="utf-8"?>
<!-- Generator: Adobe Illustrator 19.0.0, SVG Export Plug-In . SVG Version: 6.00 Build 0)  -->
<svg version="1.1" id="Capa_1" xmlns="http://www.w3.org/2000/svg" xmlns:xlink="http://www.w3.org/1999/xlink" x="0px" y="0px"
	 viewBox="-505.1 350.8 48.6 92.3" style="enable-background:new -505.1 350.8 48.6 92.3;" xml:space="preserve">
<metadata><?xpacket begin="﻿" id="W5M0MpCehiHzreSzNTczkc9d"?>
<x:xmpmeta xmlns:x="adobe:ns:meta/" x:xmptk="Adobe XMP Core 5.6-c067 79.157747, 2015/03/30-23:40:42        ">
   <rdf:RDF xmlns:rdf="http://www.w3.org/1999/02/22-rdf-syntax-ns#">
      <rdf:Description rdf:about=""/>
   </rdf:RDF>
</x:xmpmeta>
                                                                                                    
                                                                                                    
                                                                                                    
                                                                                                    
                                                                                                    
                                                                                                    
                                                                                                    
                                                                                                    
                                                                                                    
                                                                                                    
                                                                                                    
                                                                                                    
                                                                                                    
                                                                                                    
                                                                                                    
                                                                                                    
                                                                                                    
                                                                                                    
                                                                                                    
                                                                                                    
                           
<?xpacket end="w"?></metadata>
<style type="text/css">
	.st0{opacity:0.8;}
	.st1{fill:#FFFFFF;stroke:#FFFFFF;stroke-miterlimit:10;}
</style>
<g id="XMLID_307_">
	<g id="XMLID_176_">
		<g id="XMLID_177_" class="st0">
			<path id="XMLID_178_" class="st1" d="M-477.8,393.5c10.5,3.2,21.4,6.6,21.3,19.8c0,10-8.4,16.7-21.3,17.5v12.3h-3.5v-12.2
				c-8.9-0.2-18-4.2-23.8-10l2.2-3.6c5.4,5.6,13.8,9.1,21.6,9.4v-29.8c-10.1-3.1-20-6.5-20-18.8c0-9.3,7.9-15.5,20-16.3v-11h3.5
				v10.8c6.8,0.2,14,2.4,18.9,5.6l-1.9,3.7c-4.8-3.2-11.3-4.8-17.1-5L-477.8,393.5L-477.8,393.5z M-481.3,392.5v-26.4
				c-9.6,0.6-15.6,5-15.6,11.6C-496.8,386.6-489.6,389.8-481.3,392.5z M-477.8,398v28.6c10.4-0.7,16.9-5.6,16.9-13.1
				C-460.8,403.8-468.9,400.6-477.8,398z"/>
		</g>
	</g>
</g>
</svg>
