<?xml version="1.0" encoding="utf-8"?>
<!-- Generator: Adobe Illustrator 19.0.0, SVG Export Plug-In . SVG Version: 6.00 Build 0)  -->
<svg version="1.1" id="Capa_1" xmlns="http://www.w3.org/2000/svg" xmlns:xlink="http://www.w3.org/1999/xlink" x="0px" y="0px"
	 viewBox="-380.7 258.7 68 68" style="enable-background:new -380.7 258.7 68 68;" xml:space="preserve">
<metadata><?xpacket begin="﻿" id="W5M0MpCehiHzreSzNTczkc9d"?>
<x:xmpmeta xmlns:x="adobe:ns:meta/" x:xmptk="Adobe XMP Core 5.6-c067 79.157747, 2015/03/30-23:40:42        ">
   <rdf:RDF xmlns:rdf="http://www.w3.org/1999/02/22-rdf-syntax-ns#">
      <rdf:Description rdf:about=""/>
   </rdf:RDF>
</x:xmpmeta>
                                                                                                    
                                                                                                    
                                                                                                    
                                                                                                    
                                                                                                    
                                                                                                    
                                                                                                    
                                                                                                    
                                                                                                    
                                                                                                    
                                                                                                    
                                                                                                    
                                                                                                    
                                                                                                    
                                                                                                    
                                                                                                    
                                                                                                    
                                                                                                    
                                                                                                    
                                                                                                    
                           
<?xpacket end="w"?></metadata>
<style type="text/css">
	.st0{opacity:0.8;}
	.st1{fill:#FFFFFF;stroke:#FFFFFF;stroke-miterlimit:10;}
</style>
<g id="XMLID_307_">
	<g id="XMLID_176_">
		<g id="XMLID_177_" class="st0">
			<path id="XMLID_178_" class="st1" d="M-344.5,290.2c7.5,2.3,15.4,4.8,15.3,14.3c0,7.2-6,12-15.3,12.6v8.9h-2.5v-8.8
				c-6.4-0.2-13-3-17.1-7.2l1.6-2.6c3.9,4,10,6.5,15.5,6.7v-21.4c-7.3-2.2-14.4-4.7-14.4-13.5c0-6.7,5.7-11.1,14.4-11.7v-7.9h2.5
				v7.8c4.9,0.2,10,1.7,13.6,4l-1.3,2.7c-3.5-2.3-8.2-3.5-12.3-3.6L-344.5,290.2L-344.5,290.2z M-347.1,289.5v-19
				c-6.9,0.4-11.2,3.6-11.2,8.3C-358.2,285.2-353.1,287.5-347.1,289.5z M-344.5,293.5v20.6c7.4-0.5,12.2-4,12.2-9.4
				C-332.3,297.6-338.1,295.3-344.5,293.5z"/>
		</g>
	</g>
</g>
</svg>
