<?xml version="1.0" encoding="utf-8"?>
<!-- Generator: Adobe Illustrator 19.0.0, SVG Export Plug-In . SVG Version: 6.00 Build 0)  -->
<svg version="1.1" id="Capa_1" xmlns="http://www.w3.org/2000/svg" xmlns:xlink="http://www.w3.org/1999/xlink" x="0px" y="0px"
	 viewBox="-536.7 342.1 112.2 109.2" style="enable-background:new -536.7 342.1 112.2 109.2;" xml:space="preserve">
<metadata><?xpacket begin="﻿" id="W5M0MpCehiHzreSzNTczkc9d"?>
<x:xmpmeta xmlns:x="adobe:ns:meta/" x:xmptk="Adobe XMP Core 5.6-c067 79.157747, 2015/03/30-23:40:42        ">
   <rdf:RDF xmlns:rdf="http://www.w3.org/1999/02/22-rdf-syntax-ns#">
      <rdf:Description rdf:about=""/>
   </rdf:RDF>
</x:xmpmeta>
                                                                                                    
                                                                                                    
                                                                                                    
                                                                                                    
                                                                                                    
                                                                                                    
                                                                                                    
                                                                                                    
                                                                                                    
                                                                                                    
                                                                                                    
                                                                                                    
                                                                                                    
                                                                                                    
                                                                                                    
                                                                                                    
                                                                                                    
                                                                                                    
                                                                                                    
                                                                                                    
                           
<?xpacket end="w"?></metadata>
<style type="text/css">
	.st0{fill:url(#XMLID_2_);}
</style>
<g id="XMLID_252_">
	
		<linearGradient id="XMLID_2_" gradientUnits="userSpaceOnUse" x1="-528.9803" y1="459.6837" x2="-423.5178" y2="341.2188" gradientTransform="matrix(1 0 0 -1 0 794.8)">
		<stop  offset="0" style="stop-color:#393883"/>
		<stop  offset="0.1129" style="stop-color:#3A4287"/>
		<stop  offset="0.3211" style="stop-color:#3D5591"/>
		<stop  offset="0.6014" style="stop-color:#426D9E"/>
		<stop  offset="0.9397" style="stop-color:#4B91B2"/>
		<stop  offset="1" style="stop-color:#4D98B6"/>
	</linearGradient>
	<path id="XMLID_581_" class="st0" d="M-473,367.3c-11.4,6.9-22.7,13.7-34.1,20.6c1.2,2.3,1.8,4.7,1.9,7.2s-0.5,4.9-1.5,7.3
		c18.7,9.3,37.4,18.6,56.1,28c0.4-0.5,0.7-1,1.1-1.5c3.3-4.4,9-6.4,14.3-5.1c5.6,1.4,9.6,5.8,10.5,11.3c1.1,7.4-3.6,14.4-10.9,15.9
		c-8.7,1.8-16.9-5-16.6-14c0-1.6-0.4-2.2-1.8-2.9c-18.1-9-36.3-18.1-54.4-27.2c-0.8-0.4-1.3-0.3-2,0.3c-4.6,4.1-9.9,5.2-15.7,3.3
		c-6-2-9.5-6.3-10.6-12.5c-1.7-9.7,5.8-18.5,15.7-18.5c4.3,0,8,1.6,11.1,4.6c11.5-6.9,22.9-13.8,34.3-20.7c-3.6-8.3,0-16.1,6.3-19.5
		c6.5-3.5,14.7-1.7,19,4.2c4.4,5.9,3.7,14.2-1.5,19.4C-457.1,372.7-466.4,373.7-473,367.3z M-532,395.3c0,6.2,4.8,11.1,10.9,11.1
		c6,0,11-5,11-10.9c0-6.1-4.9-11.1-11-11.1C-527.1,384.4-532,389.3-532,395.3z M-472.1,356.8c0,5.5,4.4,10,9.8,10
		c5.4,0,9.9-4.5,9.9-9.8c0-5.5-4.5-10-9.9-10C-467.6,347-472.1,351.4-472.1,356.8z M-438.4,428.4c-4.9,0-8.9,4-8.9,8.9
		c0,5.2,4,9.1,9.2,9c4.7,0,8.7-4.2,8.7-8.9C-429.5,432.4-433.5,428.4-438.4,428.4z"/>
</g>
</svg>
