<?xml version="1.0" encoding="utf-8"?>
<!-- Generator: Adobe Illustrator 19.0.0, SVG Export Plug-In . SVG Version: 6.00 Build 0)  -->
<svg version="1.1" id="Capa_1" xmlns="http://www.w3.org/2000/svg" xmlns:xlink="http://www.w3.org/1999/xlink" x="0px" y="0px"
	 viewBox="0 0 133.1 94.2" style="enable-background:new 0 0 133.1 94.2;" xml:space="preserve">
<metadata><?xpacket begin="﻿" id="W5M0MpCehiHzreSzNTczkc9d"?>
<x:xmpmeta xmlns:x="adobe:ns:meta/" x:xmptk="Adobe XMP Core 5.6-c067 79.157747, 2015/03/30-23:40:42        ">
   <rdf:RDF xmlns:rdf="http://www.w3.org/1999/02/22-rdf-syntax-ns#">
      <rdf:Description rdf:about=""/>
   </rdf:RDF>
</x:xmpmeta>
                                                                                                    
                                                                                                    
                                                                                                    
                                                                                                    
                                                                                                    
                                                                                                    
                                                                                                    
                                                                                                    
                                                                                                    
                                                                                                    
                                                                                                    
                                                                                                    
                                                                                                    
                                                                                                    
                                                                                                    
                                                                                                    
                                                                                                    
                                                                                                    
                                                                                                    
                                                                                                    
                           
<?xpacket end="w"?></metadata>
<style type="text/css">
	.st0{fill:url(#XMLID_8_);}
	.st1{fill:url(#XMLID_9_);}
	.st2{fill:url(#XMLID_11_);}
</style>
<g id="XMLID_1_">
	<linearGradient id="XMLID_8_" gradientUnits="userSpaceOnUse" x1="-3.6313" y1="-6.164" x2="143.7275" y2="86.2964">
		<stop  offset="0" style="stop-color:#393883"/>
		<stop  offset="0.1129" style="stop-color:#3A4287"/>
		<stop  offset="0.3211" style="stop-color:#3D5591"/>
		<stop  offset="0.6014" style="stop-color:#426D9E"/>
		<stop  offset="0.9397" style="stop-color:#4B91B2"/>
		<stop  offset="1" style="stop-color:#4D98B6"/>
	</linearGradient>
	<path id="XMLID_623_" class="st0" d="M22.5,65.4c0,3.4,0,6.7,0,10.1c-6.1,0-12.2,0-18.3,0c0-1.1,0-2.2,0-3.4c4.9,0,9.8,0,14.7,0
		c0-22.9,0-45.6,0-68.5c-4.9,0-9.8,0-14.7,0c0-1.2,0-2.3,0-3.5c6.1,0,12.2,0,18.3,0c0,4.1,0,8.2,0,12.5c0.5,0,0.9,0,1.3,0
		c8.9,0,17.8,0,26.8,0c0.8,0,1.4-0.2,2-0.8c2.8-2.9,5.7-5.8,8.6-8.6c0.4-0.4,1-0.6,1.5-0.6c12.1,0,24.1,0,36.2,0
		c0.5,0,1.2,0.3,1.5,0.6c3,2.9,5.9,5.9,8.8,8.8c0.3,0.3,0.5,0.5,0.9,0.9c0-4.4,0-8.5,0-12.7c6.2,0,12.3,0,18.4,0c0,1.1,0,2.2,0,3.4
		c-4.9,0-9.8,0-14.8,0c0,22.9,0,45.6,0,68.5c4.9,0,9.8,0,14.8,0c0,1.2,0,2.3,0,3.5c-6.1,0-12.1,0-18.3,0c0-3.3,0-6.6,0-10.1
		c-0.5,0-0.8-0.1-1.2-0.1c-2.6,0-5.2,0-7.9,0c-0.8,0-1.4,0.3-1.9,0.9c-1,1.1-2,2.2-3.1,3.4c-0.6-0.8-1.2-1.5-1.8-2.3
		c-3.3,3.5-6.3,6.8-9.5,10.3c-0.6-0.8-1.1-1.5-1.7-2.3c-3.3,3.6-6.4,6.9-9.6,10.3c-0.6-0.7-1.2-1.4-1.8-2.2
		c-3.2,3.5-6.3,6.7-9.6,10.2c-1.7-1.8-3.3-3.6-5-5.3c-7.4-7.4-14.7-14.7-22.1-22.1c-0.6-0.6-1.1-0.8-2-0.8
		C29.5,65.4,26.1,65.4,22.5,65.4z M22.6,16c0,15.3,0,30.4,0,45.7c3.9,0,7.7,0,11.5,0c1,0,1.7,0.3,2.5,1C44.8,71,53,79.2,61.3,87.5
		c0.3,0.3,0.5,0.5,0.9,0.8c2.3-2.5,4.5-4.9,6.8-7.4C63.6,75.5,58.2,70.2,53.1,65c0.8-0.9,1.6-1.7,2.5-2.6
		c5.9,5.9,11.9,11.9,17.9,17.9c2.3-2.5,4.5-4.9,6.9-7.4c-5.4-5.4-10.7-10.7-16-16c0.8-0.8,1.6-1.6,2.5-2.5c5.9,6,11.9,12,17.9,18
		c2.3-2.5,4.6-4.9,6.9-7.4c-5.4-5.4-10.7-10.7-15.9-15.9c0.8-0.9,1.6-1.7,2.5-2.7c5.9,5.9,11.9,11.9,17.9,17.9
		c2.2-2.4,4.4-4.7,6.6-7.1c-11-10.9-21.9-21.8-33-32.9c-0.2,0.2-0.4,0.6-0.7,0.9c-4.5,4.5-9,9.1-13.6,13.6c-0.4,0.4-1.1,0.7-1.6,0.7
		c-5.9,0-11.8,0-17.8,0c-0.4,0-0.7,0-1.2-0.1c0-0.4,0-0.8,0-1.2c0-2.7,0-5.3,0-8c0-0.7,0.2-1.2,0.7-1.8c3.9-3.8,7.7-7.7,11.5-11.5
		c0.3-0.3,0.5-0.6,0.9-1C39.4,16,31,16,22.6,16z M110.1,61.7c0-0.4,0.1-0.7,0.1-1.1c0-13.9,0-27.9,0-41.8c0-0.5-0.3-1.2-0.7-1.5
		c-3.5-3.6-7.1-7.2-10.6-10.7C98.5,6.3,98,6,97.5,6C86.3,6,75.1,6,63.9,6c-0.4,0-1,0.2-1.3,0.5c-7.9,7.9-15.8,15.8-23.7,23.7
		c-0.2,0.2-0.5,0.5-0.5,0.8c0,1.6,0,3.2,0,4.8c0.2,0.1,0.3,0.1,0.4,0.1c4.6,0,9.3,0,13.9,0c0.4,0,0.9-0.3,1.2-0.6
		c3.3-3.3,6.6-6.6,10-9.9c2-2,4-4,5.9-5.9C82.5,32,95.1,44.6,107.7,57.1c-1.4,1.5-2.7,3-4.2,4.6C105.8,61.7,107.9,61.7,110.1,61.7z"
		/>
	<linearGradient id="XMLID_9_" gradientUnits="userSpaceOnUse" x1="-28.8406" y1="34.0133" x2="118.5182" y2="126.4737">
		<stop  offset="0" style="stop-color:#393883"/>
		<stop  offset="0.1129" style="stop-color:#3A4287"/>
		<stop  offset="0.3211" style="stop-color:#3D5591"/>
		<stop  offset="0.6014" style="stop-color:#426D9E"/>
		<stop  offset="0.9397" style="stop-color:#4B91B2"/>
		<stop  offset="1" style="stop-color:#4D98B6"/>
	</linearGradient>
	<path id="XMLID_613_" class="st1" d="M6.5,62.7c-3.6,0-6.5-3-6.5-6.5c0-3.5,3.1-6.5,6.6-6.5c3.6,0.1,6.4,3,6.4,6.6
		C13,59.9,10.1,62.7,6.5,62.7z M9.4,56.2c0-1.6-1.3-2.9-2.9-3c-1.6,0-3,1.4-3,3c0,1.6,1.3,2.9,3,2.9C8.2,59.1,9.4,57.9,9.4,56.2z"/>
	<linearGradient id="XMLID_11_" gradientUnits="userSpaceOnUse" x1="5.0652" y1="-20.024" x2="152.424" y2="72.4364">
		<stop  offset="0" style="stop-color:#393883"/>
		<stop  offset="0.1129" style="stop-color:#3A4287"/>
		<stop  offset="0.3211" style="stop-color:#3D5591"/>
		<stop  offset="0.6014" style="stop-color:#426D9E"/>
		<stop  offset="0.9397" style="stop-color:#4B91B2"/>
		<stop  offset="1" style="stop-color:#4D98B6"/>
	</linearGradient>
	<path id="XMLID_610_" class="st2" d="M126.5,62.7c-3.6,0-6.4-2.9-6.4-6.5c0-3.6,3-6.5,6.5-6.5c3.5,0.1,6.5,3.1,6.5,6.6
		C133.1,59.8,130.1,62.7,126.5,62.7z M126.6,59.1c1.6,0,2.9-1.2,3-2.9c0-1.6-1.4-3-3-3c-1.6,0-2.9,1.3-2.9,3
		C123.7,57.9,124.9,59.1,126.6,59.1z"/>
</g>
</svg>
