<?xml version="1.0" encoding="utf-8"?>
<!-- Generator: Adobe Illustrator 19.0.0, SVG Export Plug-In . SVG Version: 6.00 Build 0)  -->
<svg version="1.1" id="Capa_1" xmlns="http://www.w3.org/2000/svg" xmlns:xlink="http://www.w3.org/1999/xlink" x="0px" y="0px"
	 viewBox="-328 240.3 133.1 133.2" style="enable-background:new -328 240.3 133.1 133.2;" xml:space="preserve">
<metadata><?xpacket begin="﻿" id="W5M0MpCehiHzreSzNTczkc9d"?>
<x:xmpmeta xmlns:x="adobe:ns:meta/" x:xmptk="Adobe XMP Core 5.6-c067 79.157747, 2015/03/30-23:40:42        ">
   <rdf:RDF xmlns:rdf="http://www.w3.org/1999/02/22-rdf-syntax-ns#">
      <rdf:Description rdf:about=""/>
   </rdf:RDF>
</x:xmpmeta>
                                                                                                    
                                                                                                    
                                                                                                    
                                                                                                    
                                                                                                    
                                                                                                    
                                                                                                    
                                                                                                    
                                                                                                    
                                                                                                    
                                                                                                    
                                                                                                    
                                                                                                    
                                                                                                    
                                                                                                    
                                                                                                    
                                                                                                    
                                                                                                    
                                                                                                    
                                                                                                    
                           
<?xpacket end="w"?></metadata>
<style type="text/css">
	.st0{fill:url(#XMLID_3_);}
	.st1{fill:url(#XMLID_4_);}
	.st2{fill:url(#XMLID_5_);}
</style>
<g id="XMLID_1_">
	
		<linearGradient id="XMLID_3_" gradientUnits="userSpaceOnUse" x1="-331.6782" y1="361.6893" x2="-184.3194" y2="269.2289" gradientTransform="matrix(1 0 0 -1 0 615.6)">
		<stop  offset="0" style="stop-color:#393883"/>
		<stop  offset="0.1129" style="stop-color:#3A4287"/>
		<stop  offset="0.3211" style="stop-color:#3D5591"/>
		<stop  offset="0.6014" style="stop-color:#426D9E"/>
		<stop  offset="0.9397" style="stop-color:#4B91B2"/>
		<stop  offset="1" style="stop-color:#4D98B6"/>
	</linearGradient>
	<path id="XMLID_623_" class="st0" d="M-305.5,325.4c0,3.4,0,6.7,0,10.1c-6.1,0-12.2,0-18.3,0c0-1.1,0-2.2,0-3.4c4.9,0,9.8,0,14.7,0
		c0-22.9,0-45.6,0-68.5c-4.9,0-9.8,0-14.7,0c0-1.2,0-2.3,0-3.5c6.1,0,12.2,0,18.3,0c0,4.1,0,8.2,0,12.5c0.5,0,0.9,0,1.3,0
		c8.9,0,17.8,0,26.8,0c0.8,0,1.4-0.2,2-0.8c2.8-2.9,5.7-5.8,8.6-8.6c0.4-0.4,1-0.6,1.5-0.6c12.1,0,24.1,0,36.2,0
		c0.5,0,1.2,0.3,1.5,0.6c3,2.9,5.9,5.9,8.8,8.8c0.3,0.3,0.5,0.5,0.9,0.9c0-4.4,0-8.5,0-12.7c6.2,0,12.3,0,18.4,0c0,1.1,0,2.2,0,3.4
		c-4.9,0-9.8,0-14.8,0c0,22.9,0,45.6,0,68.5c4.9,0,9.8,0,14.8,0c0,1.2,0,2.3,0,3.5c-6.1,0-12.1,0-18.3,0c0-3.3,0-6.6,0-10.1
		c-0.5,0-0.8-0.1-1.2-0.1c-2.6,0-5.2,0-7.9,0c-0.8,0-1.4,0.3-1.9,0.9c-1,1.1-2,2.2-3.1,3.4c-0.6-0.8-1.2-1.5-1.8-2.3
		c-3.3,3.5-6.3,6.8-9.5,10.3c-0.6-0.8-1.1-1.5-1.7-2.3c-3.3,3.6-6.4,6.9-9.6,10.3c-0.6-0.7-1.2-1.4-1.8-2.2
		c-3.2,3.5-6.3,6.7-9.6,10.2c-1.7-1.8-3.3-3.6-5-5.3c-7.4-7.4-14.7-14.7-22.1-22.1c-0.6-0.6-1.1-0.8-2-0.8
		C-298.5,325.4-301.9,325.4-305.5,325.4z M-305.4,276c0,15.3,0,30.4,0,45.7c3.9,0,7.7,0,11.5,0c1,0,1.7,0.3,2.5,1
		c8.2,8.3,16.4,16.5,24.7,24.8c0.3,0.3,0.5,0.5,0.9,0.8c2.3-2.5,4.5-4.9,6.8-7.4c-5.4-5.4-10.8-10.7-15.9-15.9
		c0.8-0.9,1.6-1.7,2.5-2.6c5.9,5.9,11.9,11.9,17.9,17.9c2.3-2.5,4.5-4.9,6.9-7.4c-5.4-5.4-10.7-10.7-16-16c0.8-0.8,1.6-1.6,2.5-2.5
		c5.9,6,11.9,12,17.9,18c2.3-2.5,4.6-4.9,6.9-7.4c-5.4-5.4-10.7-10.7-15.9-15.9c0.8-0.9,1.6-1.7,2.5-2.7
		c5.9,5.9,11.9,11.9,17.9,17.9c2.2-2.4,4.4-4.7,6.6-7.1c-11-10.9-21.9-21.8-33-32.9c-0.2,0.2-0.4,0.6-0.7,0.9
		c-4.5,4.5-9,9.1-13.6,13.6c-0.4,0.4-1.1,0.7-1.6,0.7c-5.9,0-11.8,0-17.8,0c-0.4,0-0.7,0-1.2-0.1c0-0.4,0-0.8,0-1.2c0-2.7,0-5.3,0-8
		c0-0.7,0.2-1.2,0.7-1.8c3.9-3.8,7.7-7.7,11.5-11.5c0.3-0.3,0.5-0.6,0.9-1C-288.6,276-297,276-305.4,276z M-217.9,321.7
		c0-0.4,0.1-0.7,0.1-1.1c0-13.9,0-27.9,0-41.8c0-0.5-0.3-1.2-0.7-1.5c-3.5-3.6-7.1-7.2-10.6-10.7c-0.4-0.3-0.9-0.6-1.4-0.6
		c-11.2,0-22.4,0-33.6,0c-0.4,0-1,0.2-1.3,0.5c-7.9,7.9-15.8,15.8-23.7,23.7c-0.2,0.2-0.5,0.5-0.5,0.8c0,1.6,0,3.2,0,4.8
		c0.2,0.1,0.3,0.1,0.4,0.1c4.6,0,9.3,0,13.9,0c0.4,0,0.9-0.3,1.2-0.6c3.3-3.3,6.6-6.6,10-9.9c2-2,4-4,5.9-5.9
		c12.7,12.5,25.3,25.1,37.9,37.6c-1.4,1.5-2.7,3-4.2,4.6C-222.2,321.7-220.1,321.7-217.9,321.7z"/>
	
		<linearGradient id="XMLID_4_" gradientUnits="userSpaceOnUse" x1="-356.8468" y1="321.5769" x2="-209.488" y2="229.1165" gradientTransform="matrix(1 0 0 -1 0 615.6)">
		<stop  offset="0" style="stop-color:#393883"/>
		<stop  offset="0.1129" style="stop-color:#3A4287"/>
		<stop  offset="0.3211" style="stop-color:#3D5591"/>
		<stop  offset="0.6014" style="stop-color:#426D9E"/>
		<stop  offset="0.9397" style="stop-color:#4B91B2"/>
		<stop  offset="1" style="stop-color:#4D98B6"/>
	</linearGradient>
	<path id="XMLID_613_" class="st1" d="M-321.5,322.7c-3.6,0-6.5-3-6.5-6.5s3.1-6.5,6.6-6.5c3.6,0.1,6.4,3,6.4,6.6
		C-315,319.9-317.9,322.7-321.5,322.7z M-318.6,316.2c0-1.6-1.3-2.9-2.9-3c-1.6,0-3,1.4-3,3c0,1.6,1.3,2.9,3,2.9
		S-318.6,317.9-318.6,316.2z"/>
	
		<linearGradient id="XMLID_5_" gradientUnits="userSpaceOnUse" x1="-322.9579" y1="375.5872" x2="-175.5991" y2="283.1269" gradientTransform="matrix(1 0 0 -1 0 615.6)">
		<stop  offset="0" style="stop-color:#393883"/>
		<stop  offset="0.1129" style="stop-color:#3A4287"/>
		<stop  offset="0.3211" style="stop-color:#3D5591"/>
		<stop  offset="0.6014" style="stop-color:#426D9E"/>
		<stop  offset="0.9397" style="stop-color:#4B91B2"/>
		<stop  offset="1" style="stop-color:#4D98B6"/>
	</linearGradient>
	<path id="XMLID_610_" class="st2" d="M-201.5,322.7c-3.6,0-6.4-2.9-6.4-6.5c0-3.6,3-6.5,6.5-6.5c3.5,0.1,6.5,3.1,6.5,6.6
		S-197.9,322.7-201.5,322.7z M-201.4,319.1c1.6,0,2.9-1.2,3-2.9c0-1.6-1.4-3-3-3s-2.9,1.3-2.9,3
		C-204.3,317.9-203.1,319.1-201.4,319.1z"/>
</g>
</svg>
