<?xml version="1.0" encoding="utf-8"?>
<!-- Generator: Adobe Illustrator 19.0.0, SVG Export Plug-In . SVG Version: 6.00 Build 0)  -->
<svg version="1.1" id="Capa_1" xmlns="http://www.w3.org/2000/svg" xmlns:xlink="http://www.w3.org/1999/xlink" x="0px" y="0px"
	 viewBox="-359.3 240.1 133.2 133.2" style="enable-background:new -359.3 240.1 133.2 133.2;" xml:space="preserve">
<metadata><?xpacket begin="﻿" id="W5M0MpCehiHzreSzNTczkc9d"?>
<x:xmpmeta xmlns:x="adobe:ns:meta/" x:xmptk="Adobe XMP Core 5.6-c067 79.157747, 2015/03/30-23:40:42        ">
   <rdf:RDF xmlns:rdf="http://www.w3.org/1999/02/22-rdf-syntax-ns#">
      <rdf:Description rdf:about=""/>
   </rdf:RDF>
</x:xmpmeta>
                                                                                                    
                                                                                                    
                                                                                                    
                                                                                                    
                                                                                                    
                                                                                                    
                                                                                                    
                                                                                                    
                                                                                                    
                                                                                                    
                                                                                                    
                                                                                                    
                                                                                                    
                                                                                                    
                                                                                                    
                                                                                                    
                                                                                                    
                                                                                                    
                                                                                                    
                                                                                                    
                           
<?xpacket end="w"?></metadata>
<style type="text/css">
	.st0{fill:url(#XMLID_2_);}
	.st1{fill:url(#XMLID_3_);}
</style>
<g id="XMLID_255_">
	<g id="XMLID_250_">
		
			<linearGradient id="XMLID_2_" gradientUnits="userSpaceOnUse" x1="-377.0862" y1="341.4333" x2="-260.066" y2="231.6366" gradientTransform="matrix(1 0 0 -1 0 614.6)">
			<stop  offset="0" style="stop-color:#393883"/>
			<stop  offset="0.1129" style="stop-color:#3A4287"/>
			<stop  offset="0.3211" style="stop-color:#3D5591"/>
			<stop  offset="0.6014" style="stop-color:#426D9E"/>
			<stop  offset="0.9397" style="stop-color:#4B91B2"/>
			<stop  offset="1" style="stop-color:#4D98B6"/>
		</linearGradient>
		<polygon id="XMLID_578_" class="st0" points="-338.8,255.2 -344,255.2 -344,352.9 -344,357.9 -344,358.1 -241.4,358.1 
			-241.4,352.9 -338.8,352.9 		"/>
	</g>
	<g id="XMLID_507_">
		
			<linearGradient id="XMLID_3_" gradientUnits="userSpaceOnUse" x1="-360.1074" y1="359.5291" x2="-243.0872" y2="249.7325" gradientTransform="matrix(1 0 0 -1 0 614.6)">
			<stop  offset="0" style="stop-color:#393883"/>
			<stop  offset="0.1129" style="stop-color:#3A4287"/>
			<stop  offset="0.3211" style="stop-color:#3D5591"/>
			<stop  offset="0.6014" style="stop-color:#426D9E"/>
			<stop  offset="0.9397" style="stop-color:#4B91B2"/>
			<stop  offset="1" style="stop-color:#4D98B6"/>
		</linearGradient>
		<path id="XMLID_508_" class="st1" d="M-258.5,299.5c-2.3,2.3-4.5,4.5-6.8,6.8c-6.7,6.8-13.5,13.5-20.3,20.3
			c-0.2,0.2-0.4,0.5-0.7,0.7c-0.9,0.7-1.8,0.7-2.6-0.1c-3.4-3.4-6.9-6.9-10.3-10.3c-0.1-0.1-0.2-0.2-0.4-0.4c-1.1,1-2.2,2-3.3,3.1
			c-8,7.6-16.1,15.2-24.2,22.9c-0.3,0.3-0.7,0.6-1.1,0.7c-0.8,0.2-1.6-0.1-1.9-0.8c-0.4-0.7-0.3-1.5,0.3-2.1
			c1.1-1.1,2.3-2.2,3.5-3.3c5.8-5.5,11.6-10.9,17.5-16.4c2.6-2.4,5.2-4.9,7.8-7.3c1.3-1.2,2-1.2,3.2,0.1c3.3,3.3,6.6,6.6,10,10
			c0.1,0.1,0.3,0.2,0.4,0.3c8.9-8.9,17.7-17.7,26.6-26.6c-0.2,0-0.4,0-0.7,0c-3.3,0-6.5,0-9.8,0c-0.3,0-0.5,0-0.8,0
			c-1-0.1-1.6-0.8-1.6-1.7c0-0.9,0.8-1.6,1.7-1.7c0.2,0,0.5,0,0.7,0c4.8,0,9.6,0,14.4,0c1.5,0,2.2,0.7,2.2,2.2c0,4.9,0,9.9,0,14.8
			c0,1.4-1.3,2.3-2.5,1.7c-0.7-0.4-0.9-0.9-0.9-1.7c0-3.4,0-6.8,0-10.2c0-0.2,0-0.5,0-0.7C-258.4,299.5-258.4,299.5-258.5,299.5z"/>
	</g>
</g>
</svg>
