<?xml version="1.0" encoding="utf-8"?>
<!-- Generator: Adobe Illustrator 19.0.0, SVG Export Plug-In . SVG Version: 6.00 Build 0)  -->
<svg version="1.1" id="Capa_1" xmlns="http://www.w3.org/2000/svg" xmlns:xlink="http://www.w3.org/1999/xlink" x="0px" y="0px"
	 viewBox="-519 358.8 76.4 76.4" style="enable-background:new -519 358.8 76.4 76.4;" xml:space="preserve">
<metadata><?xpacket begin="﻿" id="W5M0MpCehiHzreSzNTczkc9d"?>
<x:xmpmeta xmlns:x="adobe:ns:meta/" x:xmptk="Adobe XMP Core 5.6-c067 79.157747, 2015/03/30-23:40:42        ">
   <rdf:RDF xmlns:rdf="http://www.w3.org/1999/02/22-rdf-syntax-ns#">
      <rdf:Description rdf:about=""/>
   </rdf:RDF>
</x:xmpmeta>
                                                                                                    
                                                                                                    
                                                                                                    
                                                                                                    
                                                                                                    
                                                                                                    
                                                                                                    
                                                                                                    
                                                                                                    
                                                                                                    
                                                                                                    
                                                                                                    
                                                                                                    
                                                                                                    
                                                                                                    
                                                                                                    
                                                                                                    
                                                                                                    
                                                                                                    
                                                                                                    
                           
<?xpacket end="w"?></metadata>
<style type="text/css">
	.st0{fill:#FFFFFF;}
	.st1{fill:#0E2363;}
</style>
<g id="XMLID_609_">
	<g id="XMLID_119_">
		<circle id="XMLID_123_" class="st0" cx="-480.8" cy="397" r="38.2"/>
	</g>
	<g id="XVdIEd_1_">
		<g id="XMLID_81_">
			<path id="XMLID_258_" class="st1" d="M-476.4,411.8c0,4.7,0,9.5,0,14.2c0,0.5,0,0.5-0.5,0.5c-3.8,0-7.5,0-11.3,0
				c-0.5,0-0.5,0-0.5-0.5c0-9.4,0-18.8,0-28.2c0-0.1,0-0.2,0-0.3c0-0.3-0.1-0.4-0.4-0.4c-1.5,0-3,0-4.5,0c-0.2,0-0.3,0-0.5,0
				c-0.3,0-0.4-0.1-0.4-0.4c0-1.3,0-2.7,0-4c0-1.9,0-3.7,0-5.6c0-0.4,0-0.5,0.5-0.5c1.6,0,3.3,0,4.9,0c0.3,0,0.4-0.1,0.4-0.4
				c0-2,0-4.1,0-6.1c0-2.2,0.4-4.3,1.3-6.3c1.3-2.8,3.5-4.7,6.5-5.6c1.4-0.4,2.8-0.6,4.3-0.6c3,0,6,0,9,0c0.3,0,0.4,0.1,0.4,0.4
				c0,3.1,0,6.3,0,9.4c0,0.3-0.1,0.4-0.4,0.4c-2.1,0-4.2,0-6.3,0c-1.1,0-2,0.6-2.3,1.6c-0.1,0.3-0.2,0.7-0.2,1.1c0,2,0,4,0,5.9
				c0,0.3,0.1,0.3,0.4,0.3c2.8,0,5.6,0,8.5,0c0.5,0,0.5,0,0.4,0.5c-0.3,2.9-0.6,5.7-0.9,8.6c0,0.3-0.1,0.6-0.1,1
				c0,0.3-0.1,0.4-0.4,0.4c-2.4,0-4.8,0-7.2,0c-0.1,0-0.2,0-0.3,0c-0.2,0-0.3,0.1-0.3,0.3c0,0.6,0,1.2,0,1.8
				C-476.4,403.4-476.4,407.6-476.4,411.8z"/>
		</g>
	</g>
</g>
</svg>
