<?xml version="1.0" encoding="utf-8"?>
<!-- Generator: Adobe Illustrator 19.0.0, SVG Export Plug-In . SVG Version: 6.00 Build 0)  -->
<svg version="1.1" id="Capa_1" xmlns="http://www.w3.org/2000/svg" xmlns:xlink="http://www.w3.org/1999/xlink" x="0px" y="0px"
	 viewBox="-544 334 123.2 123.2" style="enable-background:new -544 334 123.2 123.2;" xml:space="preserve">
<metadata><?xpacket begin="﻿" id="W5M0MpCehiHzreSzNTczkc9d"?>
<x:xmpmeta xmlns:x="adobe:ns:meta/" x:xmptk="Adobe XMP Core 5.6-c067 79.157747, 2015/03/30-23:40:42        ">
   <rdf:RDF xmlns:rdf="http://www.w3.org/1999/02/22-rdf-syntax-ns#">
      <rdf:Description rdf:about=""/>
   </rdf:RDF>
</x:xmpmeta>
                                                                                                    
                                                                                                    
                                                                                                    
                                                                                                    
                                                                                                    
                                                                                                    
                                                                                                    
                                                                                                    
                                                                                                    
                                                                                                    
                                                                                                    
                                                                                                    
                                                                                                    
                                                                                                    
                                                                                                    
                                                                                                    
                                                                                                    
                                                                                                    
                                                                                                    
                                                                                                    
                           
<?xpacket end="w"?></metadata>
<style type="text/css">
	.st0{opacity:0.8;}
	.st1{fill:#FFFFFF;stroke:#FFFFFF;stroke-miterlimit:10;}
</style>
<g id="XMLID_773_">
	<g id="XMLID_272_">
		<g id="_x37_QvPwU_9_" class="st0">
			<g id="XMLID_273_">
				<path id="XMLID_287_" class="st1" d="M-516,395.5c0-18.5,15.2-33.6,33.7-33.4c18.5,0.1,33.4,15.1,33.4,33.6
					s-15.2,33.5-33.6,33.4C-501,429-516.1,413.9-516,395.5z M-506.9,413.7c0-0.9,0-1.7,0-2.6c0.1-3.5,1.5-6.2,4.6-8.1
					c3.3-2.1,6.6-4.2,9.9-6.3c0.4-0.3,0.5-0.5,0.2-0.9c-2.6-3.5-3.2-7.4-1.7-11.5c2.2-6.2,8.9-9.6,15.3-7.7c4.6,1.4,7.4,4.6,8.3,9.3
					c0.7,3.5,0,6.8-2.2,9.7c-0.4,0.5-0.2,0.6,0.2,0.9c3.4,2.2,6.8,4.3,10.2,6.5c2.4,1.5,3.7,3.8,4.1,6.6c0,1.2,0,2.3,0,3.4
					c0,0.2,0.1,0.4,0.1,0.7c8.2-10.4,8.9-28-3.1-39.8c-12.4-12.2-32.2-11.7-44,1C-516.2,387.2-514.7,404.2-506.9,413.7z
					 M-504.2,413.7c0,0.9,0,1.9,0,2.8c0,0.5,0.2,0.8,0.5,1.2c5,4.6,10.8,7.5,17.5,8.3c4,0.5,7.9,0.2,11.7-0.8
					c4.7-1.3,8.9-3.6,12.6-6.9c0.6-0.5,0.9-1,0.8-1.8c-0.1-1.8,0-3.6-0.1-5.4c-0.1-2.4-0.9-4.4-3-5.7c-3.6-2.3-7.2-4.6-10.8-6.9
					c-0.4-0.2-0.6-0.2-1,0c-1.5,1-3.1,1.7-4.9,2c-3.2,0.5-6.1-0.1-8.8-1.9c-0.4-0.3-0.7-0.3-1.1,0c-3.5,2.2-6.9,4.4-10.4,6.6
					c-2.2,1.4-3.3,3.4-3.3,6C-504.2,411.9-504.2,412.8-504.2,413.7z M-473,388.4c0.1-5.3-4.2-9.5-9.2-9.6c-5.6-0.1-9.7,4.5-9.6,9.5
					c0.1,5.2,4.3,9.5,9.6,9.5C-477.6,397.8-472.9,393.9-473,388.4z"/>
				<path id="XMLID_286_" class="st1" d="M-482.4,334c0.1,0.1,0.2,0.2,0.4,0.3c2,2,4,4,6,6c0.4,0.4,0.4,0.6,0,1
					c-0.3,0.3-0.6,0.7-0.9,1c-0.5,0.7-0.5,0.7-1.1,0.1c-0.8-0.8-1.6-1.6-2.4-2.4c-0.2-0.2-0.3-0.3-0.6-0.6c0,0.5,0,0.7,0,0.9
					c0,4.7,0,9.3,0,14c0,0.8,0,0.8-0.8,0.8c-0.5,0-0.9,0-1.4,0s-0.7-0.1-0.7-0.7c0-3,0-6,0-9c0-1.7,0-3.4,0-5.2c0-0.2,0-0.4,0-0.7
					c-0.3,0.2-0.4,0.3-0.6,0.5c-0.8,0.8-1.7,1.7-2.5,2.5c-0.3,0.3-0.5,0.3-0.8,0c-0.4-0.4-0.9-0.8-1.4-1.3c-0.1-0.1-0.1-0.5,0-0.6
					c2.2-2.1,4.4-4.3,6.7-6.6C-482.5,334-482.5,334-482.4,334z"/>
				<path id="XMLID_285_" class="st1" d="M-434.6,366.3c-1.7-0.5-3.2-0.9-4.9-1.3c0.2-0.8,0.4-1.6,0.7-2.4c0-0.1,0.4-0.2,0.6-0.1
					c1.6,0.4,3.2,0.8,4.8,1.2c1.1,0.3,2.3,0.6,3.4,0.9c0.8,0.2,0.9,0.3,0.7,1.1c-0.7,2.7-1.4,5.4-2.1,8.1c-0.1,0.4-0.2,0.7-0.8,0.5
					c-0.7-0.3-1.4-0.4-2.1-0.6c0.4-1.6,0.8-3.2,1.2-4.7c-0.1,0-0.1-0.1-0.2-0.1c-0.2,0.1-0.3,0.2-0.5,0.2c-4.2,2.4-8.4,4.7-12.5,7.1
					c-0.5,0.3-0.7,0.2-0.9-0.3c-0.2-0.4-0.4-0.7-0.6-1c-0.4-0.7-0.4-0.7,0.3-1.1c2.6-1.5,5.2-3,7.7-4.5c1.5-0.9,3.1-1.8,4.6-2.6
					C-435,366.6-434.9,366.5-434.6,366.3z"/>
				<path id="XMLID_283_" class="st1" d="M-531.8,422.4c0.4-0.2,0.6-0.3,0.8-0.4c4.1-2.3,8.2-4.7,12.3-7c0.4-0.3,0.7-0.3,0.9,0.2
					c0.2,0.4,0.4,0.8,0.7,1.2c0.3,0.4,0.2,0.6-0.2,0.9c-2.2,1.3-4.4,2.5-6.6,3.8c-1.9,1.1-3.9,2.2-5.8,3.4c-0.2,0.1-0.3,0.2-0.6,0.4
					c1.4,0.4,2.6,0.7,3.8,1c0.1,0,0.2,0,0.3,0.1c0.8,0.2,0.8,0.3,0.6,1c-0.1,0.4-0.3,0.9-0.4,1.3c-0.1,0.5-0.3,0.5-0.7,0.4
					c-1.3-0.3-2.6-0.7-3.9-1c-1.5-0.4-2.9-0.8-4.4-1.1c-0.7-0.2-0.8-0.3-0.6-1c0.7-2.8,1.4-5.5,2.2-8.3c0.1-0.4,0.3-0.6,0.7-0.4
					c0.5,0.2,1.1,0.3,1.7,0.5c0.4,0.1,0.4,0.3,0.3,0.6c-0.4,1.2-0.7,2.5-1,3.7C-531.8,421.9-531.8,422.1-531.8,422.4z"/>
				<path id="XMLID_282_" class="st1" d="M-511.8,347.7c-0.4,1.5-0.8,2.9-1.2,4.3c-0.1,0.4-0.3,0.5-0.7,0.4
					c-0.6-0.2-1.2-0.3-1.7-0.5c-0.4-0.1-0.3-0.4-0.3-0.7c0.3-1.3,0.7-2.6,1-3.9c0.4-1.5,0.8-2.9,1.1-4.4c0.2-0.7,0.3-0.8,1-0.7
					c2.8,0.7,5.5,1.4,8.3,2.2c0.4,0.1,0.6,0.3,0.4,0.7c-0.2,0.5-0.3,1.1-0.5,1.7c-0.1,0.4-0.2,0.5-0.6,0.3c-1.2-0.4-2.5-0.7-3.8-1
					c-0.1,0-0.3,0-0.6,0c0.1,0.2,0.2,0.4,0.2,0.5c2.4,4.2,4.8,8.4,7.2,12.6c0.3,0.5,0.2,0.7-0.3,1c-0.4,0.2-0.8,0.4-1.1,0.7
					c-0.4,0.3-0.6,0.2-0.9-0.2c-1.3-2.2-2.5-4.4-3.8-6.6c-1.1-2-2.3-3.9-3.4-5.9C-511.5,348.1-511.6,348-511.8,347.7z"/>
				<path id="XMLID_281_" class="st1" d="M-544,395.5c0.1-0.1,0.2-0.2,0.3-0.3c2-2,4.1-4.1,6.1-6.1c0.4-0.4,0.6-0.4,1,0
					c0.4,0.4,0.8,0.7,1.2,1.1c0.4,0.3,0.4,0.5,0,0.9c-0.9,0.8-1.7,1.7-2.6,2.5c-0.2,0.2-0.3,0.3-0.5,0.6c0.4,0,0.6,0.1,0.9,0.1
					c4.7,0,9.3,0,14,0c0.8,0,0.8,0,0.8,0.8c0,0.4,0,0.8,0,1.2c0,0.5-0.2,0.7-0.7,0.7c-2.3,0-4.7,0-7,0c-2.4,0-4.7,0-7.1,0
					c-0.2,0-0.5,0-0.8,0.1c0.2,0.3,0.4,0.4,0.5,0.6c0.8,0.9,1.7,1.7,2.6,2.5c0.4,0.4,0.4,0.6,0,0.9c-0.4,0.4-0.8,0.9-1.2,1.3
					c-0.1,0.1-0.5,0.2-0.6,0.1c-2.3-2.2-4.5-4.5-6.8-6.8C-544,395.6-544,395.6-544,395.5z"/>
				<path id="XMLID_280_" class="st1" d="M-453.1,443.5c0.4-1.5,0.7-2.7,1.1-4c0.2-0.9,0.3-0.9,1.2-0.7c0.4,0.1,0.8,0.3,1.2,0.4
					c0.5,0.1,0.6,0.3,0.5,0.7c-0.4,1.6-0.8,3.2-1.3,4.8c-0.3,1.1-0.6,2.3-0.9,3.4c-0.2,0.8-0.3,0.8-1.1,0.6
					c-2.7-0.7-5.5-1.4-8.2-2.1c-0.4-0.1-0.7-0.3-0.4-0.8c0.2-0.5,0.3-1.1,0.5-1.6c0.1-0.4,0.3-0.4,0.7-0.3c1.2,0.4,2.5,0.7,3.7,1
					c0.1,0,0.3,0,0.6,0c-0.1-0.3-0.2-0.5-0.3-0.6c-2.4-4.2-4.7-8.3-7.1-12.5c-0.3-0.5-0.2-0.7,0.3-1c0.4-0.2,0.8-0.4,1.1-0.7
					c0.5-0.3,0.7-0.2,0.9,0.3c1.1,1.9,2.2,3.8,3.3,5.7c1.3,2.2,2.6,4.4,3.8,6.7C-453.5,443-453.4,443.2-453.1,443.5z"/>
				<path id="XMLID_279_" class="st1" d="M-455.8,346.2c-1.5,0.4-3.1,0.8-4.7,1.2c-0.2-0.8-0.5-1.6-0.7-2.4c0-0.1,0.2-0.4,0.4-0.4
					c1.9-0.5,3.9-1,5.8-1.5c0.9-0.2,1.8-0.5,2.7-0.7c0.5-0.1,0.7,0,0.8,0.5c0.5,1.9,1,3.8,1.5,5.7c0.2,0.9,0.4,1.7,0.7,2.6
					c0.2,0.6,0.1,0.8-0.6,0.9c-0.5,0.1-1,0.1-1.4,0.3c-0.5,0.2-0.6,0-0.7-0.4c-0.4-1.3-0.7-2.5-1.1-3.8c0-0.1-0.1-0.1-0.1-0.3
					c-0.2,0.2-0.3,0.4-0.4,0.6c-2.3,4.1-4.7,8.1-7,12.2c-0.5,0.8-0.5,0.8-1.3,0.3c-0.3-0.2-0.6-0.4-0.9-0.5
					c-0.5-0.2-0.5-0.5-0.3-0.9c1.5-2.7,3.1-5.3,4.6-8c0.9-1.5,1.7-3,2.5-4.5c0.1-0.2,0.2-0.3,0.3-0.5
					C-455.7,346.3-455.7,346.2-455.8,346.2z"/>
				<path id="XMLID_278_" class="st1" d="M-530.3,366.3c1.2,0.7,2.4,1.4,3.5,2c3.2,1.8,6.3,3.7,9.5,5.5c0.5,0.3,0.6,0.6,0.3,1
					c-0.2,0.3-0.5,0.7-0.6,1.1c-0.2,0.5-0.5,0.5-0.9,0.3c-2.8-1.6-5.6-3.2-8.4-4.8c-1.4-0.8-2.8-1.6-4.2-2.4
					c-0.1-0.1-0.3-0.1-0.6-0.3c0.5,1.7,0.9,3.2,1.3,4.9c-0.8,0.2-1.6,0.5-2.4,0.7c-0.1,0-0.4-0.2-0.4-0.4c-0.6-2.2-1.2-4.5-1.8-6.7
					c-0.2-0.6-0.3-1.2-0.5-1.8c-0.1-0.5,0.1-0.7,0.5-0.8c1.3-0.3,2.6-0.7,3.9-1c1.5-0.4,2.9-0.7,4.4-1.1c0.7-0.2,0.8-0.1,0.9,0.5
					c0.1,0.5,0.2,1,0.3,1.5c0.1,0.3,0,0.5-0.3,0.6c-1.3,0.4-2.6,0.8-3.9,1.1C-530,366.2-530.1,366.2-530.3,366.3z"/>
				<path id="XMLID_277_" class="st1" d="M-511.6,443.3c0.6-1.1,1.3-2.2,1.9-3.4c1.8-3.2,3.7-6.3,5.5-9.5c0.3-0.5,0.5-0.5,0.9-0.2
					c0.4,0.3,0.8,0.5,1.2,0.7c0.4,0.2,0.5,0.4,0.2,0.8c-1.8,3.1-3.5,6.2-5.3,9.3c-0.6,1.1-1.3,2.2-1.9,3.3c-0.1,0.1-0.2,0.3-0.2,0.5
					c0,0.1,0.1,0.1,0.1,0.2c1.5-0.4,3.1-0.8,4.7-1.2c0.2,0.8,0.5,1.6,0.7,2.4c0,0.1-0.2,0.4-0.4,0.4c-1.6,0.4-3.3,0.9-4.9,1.3
					c-1.1,0.3-2.2,0.6-3.2,0.9c-0.9,0.3-1,0.2-1.2-0.7c-0.6-2.3-1.2-4.6-1.8-7c-0.5-2.1-0.7-1.6,1.3-2.1c1-0.2,1-0.2,1.3,0.9
					c0.3,1.2,0.7,2.3,1,3.5C-511.7,443.3-511.7,443.3-511.6,443.3z"/>
				<path id="XMLID_276_" class="st1" d="M-434.6,424.8c-1.1-0.6-2.1-1.2-3.1-1.8c-3.3-1.9-6.6-3.8-9.9-5.7c-0.5-0.3-0.6-0.5-0.3-1
					c0.3-0.4,0.5-0.8,0.7-1.2c0.2-0.4,0.5-0.4,0.8-0.2c2.7,1.5,5.4,3.1,8.1,4.6c1.5,0.9,3,1.7,4.5,2.6c0.1,0.1,0.3,0.2,0.5,0.2
					c0.1,0,0.1-0.1,0.2-0.1c-0.4-1.5-0.8-3.1-1.2-4.7c0.8-0.2,1.6-0.5,2.4-0.7c0.1,0,0.4,0.2,0.4,0.4c0.4,1.6,0.8,3.2,1.3,4.8
					c0.3,1.1,0.6,2.3,0.9,3.4c0.2,0.8,0.1,0.9-0.7,1.1c-2.3,0.6-4.6,1.2-7,1.8c-0.4,0.1-0.8,0.2-1.2,0.3c-0.4,0.1-0.6,0-0.7-0.4
					c-0.1-0.6-0.2-1.1-0.3-1.6c-0.1-0.4,0-0.5,0.4-0.6c1.3-0.4,2.6-0.7,3.9-1.1C-434.9,424.9-434.8,424.9-434.6,424.8z"/>
				<path id="XMLID_275_" class="st1" d="M-426.4,394c-0.5-0.5-0.9-0.9-1.4-1.4c-0.6-0.6-1.1-1.1-1.7-1.7c-0.3-0.2-0.3-0.5,0-0.8
					c0.4-0.4,0.8-0.9,1.3-1.4c0.1-0.1,0.5-0.2,0.6-0.1c2.3,2.3,4.5,4.5,6.8,6.8c-0.1,0.2-0.3,0.3-0.4,0.5c-2,2-4,4-6,6
					c-0.4,0.4-0.7,0.4-1,0c-0.3-0.4-0.7-0.7-1.1-1c-0.4-0.3-0.4-0.6,0-0.9c0.9-0.8,1.7-1.7,2.6-2.5c0.1-0.1,0.3-0.3,0.5-0.6
					c-0.4,0-0.7-0.1-0.9-0.1c-4.7,0-9.3,0-14,0c-0.8,0-0.8,0-0.8-0.8c0-0.6-0.1-1.4,0.2-1.8c0.3-0.3,1.1-0.1,1.7-0.1
					c4.3,0,8.6,0,12.9,0c0.2,0,0.5,0,0.7,0C-426.5,394.1-426.5,394-426.4,394z"/>
				<path id="XMLID_274_" class="st1" d="M-482.5,457.2c-0.9-0.9-1.7-1.7-2.6-2.6c-1.3-1.3-2.6-2.6-3.9-3.9c-0.3-0.3-0.4-0.6,0-0.9
					c0.4-0.4,0.8-0.8,1.1-1.3c0.3-0.4,0.5-0.3,0.8,0c0.8,0.9,1.7,1.7,2.5,2.6c0.2,0.2,0.3,0.3,0.6,0.5c0-0.4,0.1-0.7,0.1-0.9
					c0-4.7,0-9.3,0-14c0-0.6,0.2-0.8,0.8-0.8c0.4,0,0.8,0,1.1,0c0.8,0,0.8,0,0.8,0.8c0,2.5,0,5.1,0,7.6c0,2.1,0,4.3,0,6.4
					c0,0.2,0,0.5,0.1,0.8c0.3-0.2,0.4-0.4,0.6-0.5c0.9-0.9,1.7-1.7,2.6-2.6c0.3-0.3,0.5-0.3,0.8,0c0.4,0.4,0.9,0.8,1.3,1.2
					c0.2,0.2,0.3,0.4,0,0.6c-2.2,2.2-4.4,4.4-6.6,6.6C-482.3,457.1-482.4,457.1-482.5,457.2z"/>
			</g>
		</g>
	</g>
</g>
</svg>
