<?xml version="1.0" encoding="utf-8"?>
<!-- Generator: Adobe Illustrator 19.0.0, SVG Export Plug-In . SVG Version: 6.00 Build 0)  -->
<svg version="1.1" id="Capa_1" xmlns="http://www.w3.org/2000/svg" xmlns:xlink="http://www.w3.org/1999/xlink" x="0px" y="0px"
	 viewBox="-305.4 273.4 68 68" style="enable-background:new -305.4 273.4 68 68;" xml:space="preserve">
<metadata><?xpacket begin="﻿" id="W5M0MpCehiHzreSzNTczkc9d"?>
<x:xmpmeta xmlns:x="adobe:ns:meta/" x:xmptk="Adobe XMP Core 5.6-c067 79.157747, 2015/03/30-23:40:42        ">
   <rdf:RDF xmlns:rdf="http://www.w3.org/1999/02/22-rdf-syntax-ns#">
      <rdf:Description rdf:about=""/>
   </rdf:RDF>
</x:xmpmeta>
                                                                                                    
                                                                                                    
                                                                                                    
                                                                                                    
                                                                                                    
                                                                                                    
                                                                                                    
                                                                                                    
                                                                                                    
                                                                                                    
                                                                                                    
                                                                                                    
                                                                                                    
                                                                                                    
                                                                                                    
                                                                                                    
                                                                                                    
                                                                                                    
                                                                                                    
                                                                                                    
                           
<?xpacket end="w"?></metadata>
<style type="text/css">
	.st0{opacity:0.8;}
	.st1{fill:#FFFFFF;stroke:#FFFFFF;stroke-miterlimit:10;}
</style>
<g id="XMLID_773_">
	<g id="XMLID_272_">
		<g id="_x37_QvPwU_9_" class="st0">
			<g id="XMLID_273_">
				<path id="XMLID_287_" class="st1" d="M-290.2,307.3c0-10.3,8.5-18.8,18.8-18.6c10.3,0.1,18.6,8.4,18.6,18.8
					c0,10.3-8.5,18.7-18.8,18.6C-281.8,326-290.2,317.6-290.2,307.3z M-285.1,317.5c0-0.5,0-0.9,0-1.5c0.1-2,0.8-3.5,2.6-4.5
					c1.8-1.2,3.7-2.3,5.5-3.5c0.2-0.2,0.3-0.3,0.1-0.5c-1.5-2-1.8-4.1-0.9-6.4c1.2-3.5,5-5.4,8.5-4.3c2.6,0.8,4.1,2.6,4.6,5.2
					c0.4,2,0,3.8-1.2,5.4c-0.2,0.3-0.1,0.3,0.1,0.5c1.9,1.2,3.8,2.4,5.7,3.6c1.3,0.8,2.1,2.1,2.3,3.7c0,0.7,0,1.3,0,1.9
					c0,0.1,0.1,0.2,0.1,0.4c4.6-5.8,5-15.6-1.7-22.2c-6.9-6.8-18-6.5-24.6,0.6C-290.3,302.7-289.4,312.2-285.1,317.5z M-283.6,317.5
					c0,0.5,0,1.1,0,1.6c0,0.3,0.1,0.4,0.3,0.7c2.8,2.6,6,4.2,9.8,4.6c2.2,0.3,4.4,0.1,6.5-0.4c2.6-0.7,5-2,7-3.9
					c0.3-0.3,0.5-0.6,0.4-1c-0.1-1,0-2-0.1-3c-0.1-1.3-0.5-2.5-1.7-3.2c-2-1.3-4-2.6-6-3.9c-0.2-0.1-0.3-0.1-0.6,0
					c-0.8,0.6-1.7,0.9-2.7,1.1c-1.8,0.3-3.4-0.1-4.9-1.1c-0.2-0.2-0.4-0.2-0.6,0c-2,1.2-3.9,2.5-5.8,3.7c-1.2,0.8-1.8,1.9-1.8,3.4
					C-283.6,316.5-283.6,317-283.6,317.5z M-266.2,303.4c0.1-3-2.3-5.3-5.1-5.4c-3.1-0.1-5.4,2.5-5.4,5.3c0.1,2.9,2.4,5.3,5.4,5.3
					C-268.7,308.6-266.1,306.5-266.2,303.4z"/>
				<path id="XMLID_286_" class="st1" d="M-271.4,273c0.1,0.1,0.1,0.1,0.2,0.2c1.1,1.1,2.2,2.2,3.4,3.4c0.2,0.2,0.2,0.3,0,0.6
					c-0.2,0.2-0.3,0.4-0.5,0.6c-0.3,0.4-0.3,0.4-0.6,0.1c-0.4-0.4-0.9-0.9-1.3-1.3c-0.1-0.1-0.2-0.2-0.3-0.3c0,0.3,0,0.4,0,0.5
					c0,2.6,0,5.2,0,7.8c0,0.4,0,0.4-0.4,0.4c-0.3,0-0.5,0-0.8,0s-0.4-0.1-0.4-0.4c0-1.7,0-3.4,0-5c0-0.9,0-1.9,0-2.9
					c0-0.1,0-0.2,0-0.4c-0.2,0.1-0.2,0.2-0.3,0.3c-0.4,0.4-0.9,0.9-1.4,1.4c-0.2,0.2-0.3,0.2-0.4,0c-0.2-0.2-0.5-0.4-0.8-0.7
					c-0.1-0.1-0.1-0.3,0-0.3C-274,275.5-272.7,274.3-271.4,273C-271.5,273-271.5,273-271.4,273z"/>
				<path id="XMLID_285_" class="st1" d="M-244.7,291c-0.9-0.3-1.8-0.5-2.7-0.7c0.1-0.4,0.2-0.9,0.4-1.3c0-0.1,0.2-0.1,0.3-0.1
					c0.9,0.2,1.8,0.4,2.7,0.7c0.6,0.2,1.3,0.3,1.9,0.5c0.4,0.1,0.5,0.2,0.4,0.6c-0.4,1.5-0.8,3-1.2,4.5c-0.1,0.2-0.1,0.4-0.4,0.3
					c-0.4-0.2-0.8-0.2-1.2-0.3c0.2-0.9,0.4-1.8,0.7-2.6c-0.1,0-0.1-0.1-0.1-0.1c-0.1,0.1-0.2,0.1-0.3,0.1c-2.3,1.3-4.7,2.6-7,4
					c-0.3,0.2-0.4,0.1-0.5-0.2c-0.1-0.2-0.2-0.4-0.3-0.6c-0.2-0.4-0.2-0.4,0.2-0.6c1.5-0.8,2.9-1.7,4.3-2.5c0.8-0.5,1.7-1,2.6-1.5
					C-244.9,291.2-244.9,291.2-244.7,291z"/>
				<path id="XMLID_283_" class="st1" d="M-299,322.4c0.2-0.1,0.3-0.2,0.4-0.2c2.3-1.3,4.6-2.6,6.9-3.9c0.2-0.2,0.4-0.2,0.5,0.1
					c0.1,0.2,0.2,0.4,0.4,0.7c0.2,0.2,0.1,0.3-0.1,0.5c-1.2,0.7-2.5,1.4-3.7,2.1c-1.1,0.6-2.2,1.2-3.2,1.9c-0.1,0.1-0.2,0.1-0.3,0.2
					c0.8,0.2,1.5,0.4,2.1,0.6c0.1,0,0.1,0,0.2,0.1c0.4,0.1,0.4,0.2,0.3,0.6c-0.1,0.2-0.2,0.5-0.2,0.7c-0.1,0.3-0.2,0.3-0.4,0.2
					c-0.7-0.2-1.5-0.4-2.2-0.6c-0.8-0.2-1.6-0.4-2.5-0.6c-0.4-0.1-0.4-0.2-0.3-0.6c0.4-1.6,0.8-3.1,1.2-4.6c0.1-0.2,0.2-0.3,0.4-0.2
					c0.3,0.1,0.6,0.2,0.9,0.3c0.2,0.1,0.2,0.2,0.2,0.3c-0.2,0.7-0.4,1.4-0.6,2.1C-299,322.1-299,322.2-299,322.4z"/>
				<path id="XMLID_282_" class="st1" d="M-287.8,280.7c-0.2,0.8-0.4,1.6-0.7,2.4c-0.1,0.2-0.2,0.3-0.4,0.2
					c-0.3-0.1-0.7-0.2-0.9-0.3c-0.2-0.1-0.2-0.2-0.2-0.4c0.2-0.7,0.4-1.5,0.6-2.2c0.2-0.8,0.4-1.6,0.6-2.5c0.1-0.4,0.2-0.4,0.6-0.4
					c1.6,0.4,3.1,0.8,4.6,1.2c0.2,0.1,0.3,0.2,0.2,0.4c-0.1,0.3-0.2,0.6-0.3,0.9c-0.1,0.2-0.1,0.3-0.3,0.2c-0.7-0.2-1.4-0.4-2.1-0.6
					c-0.1,0-0.2,0-0.3,0c0.1,0.1,0.1,0.2,0.1,0.3c1.3,2.3,2.7,4.7,4,7c0.2,0.3,0.1,0.4-0.2,0.6c-0.2,0.1-0.4,0.2-0.6,0.4
					c-0.2,0.2-0.3,0.1-0.5-0.1c-0.7-1.2-1.4-2.5-2.1-3.7c-0.6-1.1-1.3-2.2-1.9-3.3C-287.6,280.9-287.7,280.8-287.8,280.7z"/>
				<path id="XMLID_281_" class="st1" d="M-305.8,307.3c0.1-0.1,0.1-0.1,0.2-0.2c1.1-1.1,2.3-2.3,3.4-3.4c0.2-0.2,0.3-0.2,0.6,0
					c0.2,0.2,0.4,0.4,0.7,0.6c0.2,0.2,0.2,0.3,0,0.5c-0.5,0.4-0.9,0.9-1.5,1.4c-0.1,0.1-0.2,0.2-0.3,0.3c0.2,0,0.3,0.1,0.5,0.1
					c2.6,0,5.2,0,7.8,0c0.4,0,0.4,0,0.4,0.4c0,0.2,0,0.4,0,0.7c0,0.3-0.1,0.4-0.4,0.4c-1.3,0-2.6,0-3.9,0c-1.3,0-2.6,0-4,0
					c-0.1,0-0.3,0-0.4,0.1c0.1,0.2,0.2,0.2,0.3,0.3c0.4,0.5,0.9,0.9,1.5,1.4c0.2,0.2,0.2,0.3,0,0.5c-0.2,0.2-0.4,0.5-0.7,0.7
					c-0.1,0.1-0.3,0.1-0.3,0.1c-1.3-1.2-2.5-2.5-3.8-3.8C-305.8,307.4-305.8,307.4-305.8,307.3z"/>
				<path id="XMLID_280_" class="st1" d="M-255,334.1c0.2-0.8,0.4-1.5,0.6-2.2c0.1-0.5,0.2-0.5,0.7-0.4c0.2,0.1,0.4,0.2,0.7,0.2
					c0.3,0.1,0.3,0.2,0.3,0.4c-0.2,0.9-0.4,1.8-0.7,2.7c-0.2,0.6-0.3,1.3-0.5,1.9c-0.1,0.4-0.2,0.4-0.6,0.3
					c-1.5-0.4-3.1-0.8-4.6-1.2c-0.2-0.1-0.4-0.2-0.2-0.4c0.1-0.3,0.2-0.6,0.3-0.9c0.1-0.2,0.2-0.2,0.4-0.2c0.7,0.2,1.4,0.4,2.1,0.6
					c0.1,0,0.2,0,0.3,0c-0.1-0.2-0.1-0.3-0.2-0.3c-1.3-2.3-2.6-4.6-4-7c-0.2-0.3-0.1-0.4,0.2-0.6c0.2-0.1,0.4-0.2,0.6-0.4
					c0.3-0.2,0.4-0.1,0.5,0.2c0.6,1.1,1.2,2.1,1.8,3.2c0.7,1.2,1.5,2.5,2.1,3.7C-255.3,333.9-255.2,334-255,334.1z"/>
				<path id="XMLID_279_" class="st1" d="M-256.5,279.8c-0.8,0.2-1.7,0.4-2.6,0.7c-0.1-0.4-0.3-0.9-0.4-1.3c0-0.1,0.1-0.2,0.2-0.2
					c1.1-0.3,2.2-0.6,3.2-0.8c0.5-0.1,1-0.3,1.5-0.4c0.3-0.1,0.4,0,0.4,0.3c0.3,1.1,0.6,2.1,0.8,3.2c0.1,0.5,0.2,0.9,0.4,1.5
					c0.1,0.3,0.1,0.4-0.3,0.5c-0.3,0.1-0.6,0.1-0.8,0.2c-0.3,0.1-0.3,0-0.4-0.2c-0.2-0.7-0.4-1.4-0.6-2.1c0-0.1-0.1-0.1-0.1-0.2
					c-0.1,0.1-0.2,0.2-0.2,0.3c-1.3,2.3-2.6,4.5-3.9,6.8c-0.3,0.4-0.3,0.4-0.7,0.2c-0.2-0.1-0.3-0.2-0.5-0.3
					c-0.3-0.1-0.3-0.3-0.2-0.5c0.8-1.5,1.7-3,2.6-4.5c0.5-0.8,0.9-1.7,1.4-2.5c0.1-0.1,0.1-0.2,0.2-0.3
					C-256.5,279.9-256.5,279.8-256.5,279.8z"/>
				<path id="XMLID_278_" class="st1" d="M-298.1,291c0.7,0.4,1.3,0.8,2,1.1c1.8,1,3.5,2.1,5.3,3.1c0.3,0.2,0.3,0.3,0.2,0.6
					c-0.1,0.2-0.3,0.4-0.3,0.6c-0.1,0.3-0.3,0.3-0.5,0.2c-1.6-0.9-3.1-1.8-4.7-2.7c-0.8-0.4-1.6-0.9-2.3-1.3
					c-0.1-0.1-0.2-0.1-0.3-0.2c0.3,0.9,0.5,1.8,0.7,2.7c-0.4,0.1-0.9,0.3-1.3,0.4c-0.1,0-0.2-0.1-0.2-0.2c-0.3-1.2-0.7-2.5-1-3.7
					c-0.1-0.3-0.2-0.7-0.3-1c-0.1-0.3,0.1-0.4,0.3-0.4c0.7-0.2,1.5-0.4,2.2-0.6c0.8-0.2,1.6-0.4,2.5-0.6c0.4-0.1,0.4-0.1,0.5,0.3
					c0.1,0.3,0.1,0.6,0.2,0.8c0.1,0.2,0,0.3-0.2,0.3c-0.7,0.2-1.5,0.4-2.2,0.6C-298,291-298,291-298.1,291z"/>
				<path id="XMLID_277_" class="st1" d="M-287.7,334c0.3-0.6,0.7-1.2,1.1-1.9c1-1.8,2.1-3.5,3.1-5.3c0.2-0.3,0.3-0.3,0.5-0.1
					c0.2,0.2,0.4,0.3,0.7,0.4c0.2,0.1,0.3,0.2,0.1,0.4c-1,1.7-2,3.5-3,5.2c-0.3,0.6-0.7,1.2-1.1,1.8c-0.1,0.1-0.1,0.2-0.1,0.3
					c0,0.1,0.1,0.1,0.1,0.1c0.8-0.2,1.7-0.4,2.6-0.7c0.1,0.4,0.3,0.9,0.4,1.3c0,0.1-0.1,0.2-0.2,0.2c-0.9,0.2-1.8,0.5-2.7,0.7
					c-0.6,0.2-1.2,0.3-1.8,0.5c-0.5,0.2-0.6,0.1-0.7-0.4c-0.3-1.3-0.7-2.6-1-3.9c-0.3-1.2-0.4-0.9,0.7-1.2c0.6-0.1,0.6-0.1,0.7,0.5
					C-288.2,332.8-287.9,333.4-287.7,334C-287.8,334-287.8,334-287.7,334z"/>
				<path id="XMLID_276_" class="st1" d="M-244.7,323.7c-0.6-0.3-1.2-0.7-1.7-1c-1.8-1.1-3.7-2.1-5.5-3.2c-0.3-0.2-0.3-0.3-0.2-0.6
					c0.2-0.2,0.3-0.4,0.4-0.7c0.1-0.2,0.3-0.2,0.4-0.1c1.5,0.8,3,1.7,4.5,2.6c0.8,0.5,1.7,0.9,2.5,1.5c0.1,0.1,0.2,0.1,0.3,0.1
					c0.1,0,0.1-0.1,0.1-0.1c-0.2-0.8-0.4-1.7-0.7-2.6c0.4-0.1,0.9-0.3,1.3-0.4c0.1,0,0.2,0.1,0.2,0.2c0.2,0.9,0.4,1.8,0.7,2.7
					c0.2,0.6,0.3,1.3,0.5,1.9c0.1,0.4,0.1,0.5-0.4,0.6c-1.3,0.3-2.6,0.7-3.9,1c-0.2,0.1-0.4,0.1-0.7,0.2c-0.2,0.1-0.3,0-0.4-0.2
					c-0.1-0.3-0.1-0.6-0.2-0.9c-0.1-0.2,0-0.3,0.2-0.3c0.7-0.2,1.5-0.4,2.2-0.6C-244.9,323.8-244.8,323.8-244.7,323.7z"/>
				<path id="XMLID_275_" class="st1" d="M-240.1,306.5c-0.3-0.3-0.5-0.5-0.8-0.8c-0.3-0.3-0.6-0.6-0.9-0.9c-0.2-0.1-0.2-0.3,0-0.4
					c0.2-0.2,0.4-0.5,0.7-0.8c0.1-0.1,0.3-0.1,0.3-0.1c1.3,1.3,2.5,2.5,3.8,3.8c-0.1,0.1-0.2,0.2-0.2,0.3c-1.1,1.1-2.2,2.2-3.4,3.4
					c-0.2,0.2-0.4,0.2-0.6,0c-0.2-0.2-0.4-0.4-0.6-0.6c-0.2-0.2-0.2-0.3,0-0.5c0.5-0.4,0.9-0.9,1.5-1.4c0.1-0.1,0.2-0.2,0.3-0.3
					c-0.2,0-0.4-0.1-0.5-0.1c-2.6,0-5.2,0-7.8,0c-0.4,0-0.4,0-0.4-0.4c0-0.3-0.1-0.8,0.1-1c0.2-0.2,0.6-0.1,0.9-0.1
					c2.4,0,4.8,0,7.2,0C-240.4,306.6-240.2,306.6-240.1,306.5C-240.2,306.6-240.2,306.5-240.1,306.5z"/>
				<path id="XMLID_274_" class="st1" d="M-271.5,341.8c-0.5-0.5-0.9-0.9-1.5-1.5c-0.7-0.7-1.5-1.5-2.2-2.2c-0.2-0.2-0.2-0.3,0-0.5
					c0.2-0.2,0.4-0.4,0.6-0.7c0.2-0.2,0.3-0.2,0.4,0c0.4,0.5,0.9,0.9,1.4,1.5c0.1,0.1,0.2,0.2,0.3,0.3c0-0.2,0.1-0.4,0.1-0.5
					c0-2.6,0-5.2,0-7.8c0-0.3,0.1-0.4,0.4-0.4c0.2,0,0.4,0,0.6,0c0.4,0,0.4,0,0.4,0.4c0,1.4,0,2.8,0,4.2c0,1.2,0,2.4,0,3.6
					c0,0.1,0,0.3,0.1,0.4c0.2-0.1,0.2-0.2,0.3-0.3c0.5-0.5,0.9-0.9,1.5-1.5c0.2-0.2,0.3-0.2,0.4,0c0.2,0.2,0.5,0.4,0.7,0.7
					c0.1,0.1,0.2,0.2,0,0.3c-1.2,1.2-2.5,2.5-3.7,3.7C-271.3,341.7-271.4,341.7-271.5,341.8z"/>
			</g>
		</g>
	</g>
</g>
</svg>
