<?xml version="1.0" encoding="utf-8"?>
<!-- Generator: Adobe Illustrator 19.0.0, SVG Export Plug-In . SVG Version: 6.00 Build 0)  -->
<svg version="1.1" id="Capa_1" xmlns="http://www.w3.org/2000/svg" xmlns:xlink="http://www.w3.org/1999/xlink" x="0px" y="0px"
	 viewBox="-573 358.4 76.6 76.6" style="enable-background:new -573 358.4 76.6 76.6;" xml:space="preserve">
<metadata><?xpacket begin="﻿" id="W5M0MpCehiHzreSzNTczkc9d"?>
<x:xmpmeta xmlns:x="adobe:ns:meta/" x:xmptk="Adobe XMP Core 5.6-c067 79.157747, 2015/03/30-23:40:42        ">
   <rdf:RDF xmlns:rdf="http://www.w3.org/1999/02/22-rdf-syntax-ns#">
      <rdf:Description rdf:about=""/>
   </rdf:RDF>
</x:xmpmeta>
                                                                                                    
                                                                                                    
                                                                                                    
                                                                                                    
                                                                                                    
                                                                                                    
                                                                                                    
                                                                                                    
                                                                                                    
                                                                                                    
                                                                                                    
                                                                                                    
                                                                                                    
                                                                                                    
                                                                                                    
                                                                                                    
                                                                                                    
                                                                                                    
                                                                                                    
                                                                                                    
                           
<?xpacket end="w"?></metadata>
<style type="text/css">
	.st0{fill:#FFFFFF;}
	.st1{fill:#0E2363;}
</style>
<g id="XMLID_609_">
	<g id="XMLID_119_">
		<circle id="XMLID_120_" class="st0" cx="-534.7" cy="396.7" r="38.3"/>
	</g>
</g>
<g id="Z09pHv_1_">
	<g>
		<path class="st0" d="M-534.7,385.9c6.8,0,12.2,5.5,12.2,12.2c0,6.8-5.5,12.3-12.4,12.3c-6.8-0.1-12.2-5.6-12.1-12.4
			C-546.9,391.2-541.4,385.9-534.7,385.9z M-534.7,387.5c-5.9,0-10.6,4.7-10.6,10.6c0,5.8,4.8,10.6,10.6,10.6
			c5.9,0,10.7-4.8,10.6-10.6C-524.1,392.3-528.8,387.5-534.7,387.5z"/>
		<path class="st0" d="M-521.1,386.7c-2,0-3.6-1.6-3.6-3.6c0-2.1,1.6-3.7,3.7-3.7c2,0,3.6,1.7,3.6,3.7S-519.1,386.8-521.1,386.7z
			 M-519.1,383.1c0-1.1-0.9-2-2-2s-2,0.9-2,2s0.9,2,2,2C-520,385.2-519.1,384.3-519.1,383.1z"/>
		<path class="st1" d="M-534.7,387.5c5.9,0,10.6,4.7,10.6,10.6s-4.8,10.7-10.6,10.6c-5.8,0-10.6-4.8-10.6-10.6
			S-540.6,387.5-534.7,387.5z M-542.6,398.1c0,4.4,3.5,7.9,7.9,7.9c4.5,0,8-3.5,8-8c0-4.4-3.6-7.9-8-7.9
			C-539.1,390.2-542.6,393.7-542.6,398.1z"/>
		<path class="st1" d="M-519.1,383.1c0,1.1-0.9,2-2.1,2c-1.1,0-2-0.9-2-2s0.9-2,2-2C-520,381.1-519.1,382-519.1,383.1z"/>
		<path class="st0" d="M-542.6,398.1c0-4.4,3.5-7.9,7.9-8c4.4,0,8,3.5,8,7.9c0,4.5-3.5,8-8,8C-539.1,406.1-542.6,402.5-542.6,398.1z
			 M-534.7,404.4c3.5,0,6.3-2.8,6.3-6.3s-2.8-6.4-6.3-6.4s-6.3,2.9-6.3,6.4C-541,401.7-538.2,404.4-534.7,404.4z"/>
		<path class="st1" d="M-534.7,404.4c-3.5,0-6.3-2.8-6.3-6.3s2.8-6.4,6.3-6.4s6.3,2.8,6.3,6.4C-528.4,401.6-531.2,404.4-534.7,404.4
			z"/>
	</g>
</g>
<path class="st1" d="M-534.8,420.4c-4.7,0-9.4,0-14,0c-4.2,0-7.8-2.5-9.1-6.5c-0.3-0.9-0.5-2-0.5-3c0-9.5,0-19,0-28.5
	c0-4.1,2.5-7.7,6.5-9c0.9-0.3,2-0.5,3-0.5c9.5,0,19,0,28.5,0c4.1,0,7.7,2.6,8.9,6.5c0.3,0.9,0.5,2,0.5,3c0,9.5,0,18.9,0,28.4
	c0,4.2-2.5,7.8-6.5,9.1c-1,0.3-2.1,0.5-3.1,0.5C-525.3,420.4-530,420.4-534.8,420.4L-534.8,420.4z M-556.8,396.8c0,4.8,0,9.5,0,14.3
	c0,0.9,0.2,2,0.5,2.8c1.2,3.1,4,5,7.3,5c9.4,0,18.9,0,28.3,0c0.6,0,1.2-0.1,1.8-0.2c3.3-0.6,6-3.8,6.1-7.1c0-1,0-2,0-3.1
	c0-8.6,0-17.2,0-25.8c0-1-0.2-2-0.5-2.9c-1.1-3.1-3.9-5-7.2-5c-2.9,0-5.8,0-8.7,0c-6.5,0-13,0-19.6,0c-1.5,0-2.8,0.3-4.1,1
	c-2.6,1.5-4,3.8-4,6.7C-556.8,387.2-556.8,391.9-556.8,396.8z"/>
<path class="st1" d="M-557.4,397c0-4.9,0-9.7,0-14.6c0-3,1.4-5.3,4.1-6.8c1.3-0.7,2.6-1,4.2-1c6.6,0,13.2,0,19.9,0
	c2.9,0,5.9,0,8.8,0c3.4,0,6.2,1.9,7.3,5.1c0.3,0.9,0.5,1.9,0.5,2.9c0,8.7,0,17.4,0,26.1c0,1,0,2,0,3.1c-0.1,3.4-2.8,6.6-6.2,7.2
	c-0.6,0.1-1.2,0.2-1.8,0.2c-9.5,0-19.2,0-28.7,0c-3.5,0-6.2-1.8-7.4-5.1c-0.3-0.9-0.5-1.9-0.5-2.8
	C-557.4,406.6-557.4,401.8-557.4,397z M-535,386.1c-6.8,0-12.4,5.4-12.4,12.2c-0.1,6.9,5.4,12.4,12.3,12.5c7,0.1,12.6-5.5,12.6-12.4
	C-522.6,391.6-528.1,386.1-535,386.1z M-521.2,386.9c2,0,3.8-1.6,3.8-3.6s-1.7-3.7-3.7-3.7c-2.1,0-3.8,1.6-3.8,3.7
	C-524.9,385.4-523.3,386.9-521.2,386.9z"/>
</svg>
