<?xml version="1.0" encoding="utf-8"?>
<!-- Generator: Adobe Illustrator 19.0.0, SVG Export Plug-In . SVG Version: 6.00 Build 0)  -->
<svg version="1.1" id="Capa_1" xmlns="http://www.w3.org/2000/svg" xmlns:xlink="http://www.w3.org/1999/xlink" x="0px" y="0px"
	 viewBox="-532.8 344.2 104 105.7" style="enable-background:new -532.8 344.2 104 105.7;" xml:space="preserve">
<metadata><?xpacket begin="﻿" id="W5M0MpCehiHzreSzNTczkc9d"?>
<x:xmpmeta xmlns:x="adobe:ns:meta/" x:xmptk="Adobe XMP Core 5.6-c067 79.157747, 2015/03/30-23:40:42        ">
   <rdf:RDF xmlns:rdf="http://www.w3.org/1999/02/22-rdf-syntax-ns#">
      <rdf:Description rdf:about=""/>
   </rdf:RDF>
</x:xmpmeta>
                                                                                                    
                                                                                                    
                                                                                                    
                                                                                                    
                                                                                                    
                                                                                                    
                                                                                                    
                                                                                                    
                                                                                                    
                                                                                                    
                                                                                                    
                                                                                                    
                                                                                                    
                                                                                                    
                                                                                                    
                                                                                                    
                                                                                                    
                                                                                                    
                                                                                                    
                                                                                                    
                           
<?xpacket end="w"?></metadata>
<style type="text/css">
	.st0{opacity:0.8;}
	.st1{fill:#FFFFFF;stroke:#FFFFFF;stroke-miterlimit:10;}
</style>
<g id="XMLID_743_">
	<g id="XMLID_288_">
		<g id="KgG6aI_9_" class="st0">
			<g id="XMLID_289_">
				<path id="XMLID_306_" class="st1" d="M-532.8,344.2c28.6,0,57.2,0,85.9,0c0,0.3,0,0.5,0,0.7c0,21.2,0,42.4,0,63.6
					c0,0.2,0,0.3,0,0.5c0,0.4,0.1,0.5,0.5,0.5c2.6,0,5.3,0,7.9,0c3,0,6.1,0,9.1,0c0.5,0,0.6,0.1,0.6,0.6c0,9.9,0,19.7,0,29.6
					c0,4.5-3.2,8.6-7.5,9.8c-0.9,0.3-1.9,0.4-2.8,0.4c-27.8,0-55.5,0-83.3,0c-4.6,0-8.6-3.1-9.8-7.2c-0.3-1-0.5-2.2-0.5-3.2
					c0-21.1,0-42.2,0-63.3c0-10.4,0-20.7,0-31.1C-532.8,344.7-532.8,344.4-532.8,344.2z M-446,447.5c0-0.1,0-0.2-0.1-0.2
					c-0.1-0.1-0.2-0.2-0.3-0.3c-2-2.2-3.1-4.7-3.1-7.6c0-3.4,0-6.8,0-10.3c0-27.2,0-54.4,0-81.6c0-1,0.1-0.9-0.8-0.9
					c-26.5,0-53,0-79.5,0c-0.7,0-0.7,0-0.7,0.7c0,5.2,0,10.4,0,15.5c0,19.2,0,38.4,0,57.6c0,6.2,0,12.4,0,18.6
					c0,1.3,0.2,2.5,0.7,3.6c1.5,3.3,4.4,4.8,7.8,4.8c25.1,0.1,50.3,0,75.4,0C-446.3,447.5-446.2,447.5-446,447.5z M-446.9,426.4
					c0,2.2,0,4.3,0,6.5c0,2.2,0,4.4,0,6.5c0,0.9,0.1,1.8,0.4,2.6c1.4,4.6,6.9,6.9,11.1,4.6c2.8-1.5,4.3-3.9,4.3-7.1
					c0-9,0-17.9,0-26.9c0-0.5-0.2-0.6-0.6-0.6c-4.9,0-9.7,0-14.6,0c-0.5,0-0.7,0.1-0.7,0.7C-446.9,417.2-446.9,421.8-446.9,426.4z"
					/>
				<path id="XMLID_303_" class="st1" d="M-503.1,352.4c7.2,0,14.4,0,21.6,0c0.7,0,0.7,0,0.7,0.7c0,5.5,0,11.1,0,16.6
					c0,0.7,0,0.7-0.7,0.7c-14.4,0-28.8,0-43.3,0c-0.5,0-0.7-0.2-0.6-0.7c0-5.6,0-11.2,0-16.8c0-0.5,0.1-0.6,0.6-0.6
					C-517.5,352.4-510.3,352.4-503.1,352.4L-503.1,352.4z M-503,354.9c-6.4,0-12.8,0-19.2,0c-0.5,0-0.6,0.1-0.6,0.6c0,4,0,8,0,12
					c0,0.4,0.1,0.6,0.6,0.6c12.8,0,25.7,0,38.5,0c0.7,0,0.7,0,0.7-0.7c0-3.9,0-7.9,0-11.8c0-0.7,0-0.7-0.7-0.7
					C-490.2,354.9-496.6,354.9-503,354.9z"/>
				<path id="XMLID_302_" class="st1" d="M-491.7,385.1c-11,0-22,0-33,0c-0.4,0-0.6-0.2-0.6-0.6c0-0.5,0-0.9,0-1.4
					c0-0.4,0.1-0.5,0.5-0.5c2.1,0,4.2,0,6.3,0c19.8,0,39.6,0,59.5,0c0.9,0,0.9,0,0.9,0.9c0,1.6,0,1.6-1.6,1.6
					C-470.3,385.1-481,385.1-491.7,385.1z"/>
				<path id="XMLID_299_" class="st1" d="M-465.6,352.4c3.3,0,6.6,0,9.8,0c0.4,0,0.6,0.1,0.6,0.6c0,5.6,0,11.2,0,16.8
					c0,0.5-0.1,0.6-0.6,0.6c-6.6,0-13.2,0-19.8,0c-0.5,0-0.6-0.2-0.6-0.6c0-5.6,0-11.2,0-16.8c0-0.5,0.2-0.6,0.6-0.6
					C-472.2,352.4-468.9,352.4-465.6,352.4L-465.6,352.4z M-465.8,367.9L-465.8,367.9c2.5,0,5,0,7.5,0c0.5,0,0.6-0.1,0.6-0.6
					c0-4,0-7.9,0-11.9c0-0.5-0.2-0.6-0.6-0.6c-4.9,0-9.9,0-14.8,0c-0.7,0-0.7,0-0.7,0.7c0,3.9,0,7.8,0,11.7c0,0.5,0.2,0.6,0.7,0.6
					C-470.7,367.9-468.2,367.9-465.8,367.9z"/>
				<path id="XMLID_298_" class="st1" d="M-494,406.1c-10.1,0-20.3,0-30.4,0c-0.8,0-0.8,0-0.8-0.8c0-0.4,0-0.8,0-1.2
					s0.1-0.5,0.5-0.5c2,0,4,0,6,0c18.3,0,36.6,0,54.9,0c0.8,0,0.8,0,0.8,0.8c0,0.3,0,0.7,0,1c0.1,0.5-0.1,0.7-0.7,0.7
					c-4.2,0-8.3,0-12.5,0C-482.1,406.1-488,406.1-494,406.1L-494,406.1z"/>
				<path id="XMLID_297_" class="st1" d="M-495,427c-9.7,0-19.4,0-29.1,0c-1.2,0-1.1,0.1-1.1-1c0-0.2,0-0.5,0-0.7
					c0-0.7,0-0.7,0.7-0.7c1.8,0,3.6,0,5.5,0c17.8,0,35.6,0,53.3,0c0.7,0,0.7,0,0.7,0.7c0,0.4,0,0.7,0,1.1c0,0.7,0,0.7-0.7,0.7
					c-2.2,0-4.4,0-6.6,0C-479.8,427-487.4,427-495,427L-495,427z"/>
				<path id="XMLID_296_" class="st1" d="M-497.6,393.2c8.9,0,17.7,0,26.6,0c1.1,0,0.9-0.1,0.9,0.9c0,1.5,0,1.5-1.5,1.5
					c-17.6,0-35.2,0-52.8,0c-0.8,0-0.8,0-0.8-0.8c0-0.4,0-0.7,0-1.1c0-0.5,0.1-0.6,0.6-0.6c1.3,0,2.6,0,4,0
					C-512.9,393.2-505.3,393.2-497.6,393.2z"/>
				<path id="XMLID_295_" class="st1" d="M-498.9,435.1c8.5,0,17,0,25.4,0c0.8,0,0.8,0,0.7,0.8c0,0.4,0,0.7,0,1.1
					c0,0.5-0.1,0.7-0.6,0.7c-3.2,0-6.3,0-9.5,0c-13.7,0-27.5,0-41.2,0c-1.3,0-1.1,0.2-1.1-1.1c0-1.4,0-1.4,1.4-1.4
					C-515.5,435.1-507.2,435.1-498.9,435.1z"/>
				<path id="XMLID_294_" class="st1" d="M-505.3,416.6c-6.4,0-12.8,0-19.2,0c-0.5,0-0.7-0.1-0.7-0.7c0-0.4,0-0.9,0-1.3
					s0.1-0.6,0.6-0.6c2.6,0,5.2,0,7.8,0c10.2,0,20.4,0,30.5,0c0.9,0,0.9,0,0.9,0.8c0,0.4,0,0.8,0,1.2c0,0.3-0.1,0.4-0.4,0.4
					c-0.2,0-0.5,0-0.7,0C-492.8,416.6-499.1,416.6-505.3,416.6L-505.3,416.6z"/>
				<path id="XMLID_293_" class="st1" d="M-437.8,425.5c0,1.2,0,1.2-1.2,1.2c-1.2,0-1.2,0-1.2-1.2c0-1.3,0-1.3,1.3-1.3
					C-437.8,424.2-437.8,424.2-437.8,425.5z"/>
				<path id="XMLID_292_" class="st1" d="M-439.1,417c1.2,0,1.2,0,1.2,1.2c0,1.2,0,1.2-1.3,1.2c-1.2,0-1.2,0-1.2-1.2c0,0,0,0,0-0.1
					C-440.3,417-440.3,417-439.1,417z"/>
				<path id="XMLID_291_" class="st1" d="M-437.8,432.7c0,1.3,0,1.3-1.3,1.3c-1.2,0-1.2,0-1.2-1.2c0-1.3,0-1.3,1.3-1.3
					C-437.8,431.5-437.8,431.5-437.8,432.7z"/>
				<path id="XMLID_290_" class="st1" d="M-437.8,440c0,1.3,0,1.3-1.2,1.3c-1.2,0-1.2,0-1.2-1.2c0-1.2,0-1.2,1.2-1.2c0,0,0,0,0.1,0
					C-437.8,438.7-437.8,438.7-437.8,440z"/>
			</g>
		</g>
	</g>
</g>
</svg>
