<?xml version="1.0" encoding="utf-8"?>
<!-- Generator: Adobe Illustrator 19.0.0, SVG Export Plug-In . SVG Version: 6.00 Build 0)  -->
<svg version="1.1" id="Capa_1" xmlns="http://www.w3.org/2000/svg" xmlns:xlink="http://www.w3.org/1999/xlink" x="0px" y="0px"
	 viewBox="-325 273.4 68 68" style="enable-background:new -325 273.4 68 68;" xml:space="preserve">
<metadata><?xpacket begin="﻿" id="W5M0MpCehiHzreSzNTczkc9d"?>
<x:xmpmeta xmlns:x="adobe:ns:meta/" x:xmptk="Adobe XMP Core 5.6-c067 79.157747, 2015/03/30-23:40:42        ">
   <rdf:RDF xmlns:rdf="http://www.w3.org/1999/02/22-rdf-syntax-ns#">
      <rdf:Description rdf:about=""/>
   </rdf:RDF>
</x:xmpmeta>
                                                                                                    
                                                                                                    
                                                                                                    
                                                                                                    
                                                                                                    
                                                                                                    
                                                                                                    
                                                                                                    
                                                                                                    
                                                                                                    
                                                                                                    
                                                                                                    
                                                                                                    
                                                                                                    
                                                                                                    
                                                                                                    
                                                                                                    
                                                                                                    
                                                                                                    
                                                                                                    
                           
<?xpacket end="w"?></metadata>
<style type="text/css">
	.st0{opacity:0.8;}
	.st1{fill:#FFFFFF;stroke:#FFFFFF;stroke-miterlimit:10;}
</style>
<g id="XMLID_743_">
	<g id="XMLID_288_">
		<g id="KgG6aI_9_" class="st0">
			<g id="XMLID_289_">
				<path id="XMLID_306_" class="st1" d="M-324.1,273.7c18.2,0,36.4,0,54.7,0c0,0.2,0,0.3,0,0.4c0,13.5,0,27,0,40.5
					c0,0.1,0,0.2,0,0.3c0,0.3,0.1,0.3,0.3,0.3c1.7,0,3.4,0,5,0c1.9,0,3.9,0,5.8,0c0.3,0,0.4,0.1,0.4,0.4c0,6.3,0,12.5,0,18.8
					c0,2.9-2,5.5-4.8,6.2c-0.6,0.2-1.2,0.3-1.8,0.3c-17.7,0-35.3,0-53,0c-2.9,0-5.5-2-6.2-4.6c-0.2-0.6-0.3-1.4-0.3-2
					c0-13.4,0-26.9,0-40.3c0-6.6,0-13.2,0-19.8C-324.1,274-324.1,273.8-324.1,273.7z M-268.9,339.5c0-0.1,0-0.1-0.1-0.1
					c-0.1-0.1-0.1-0.1-0.2-0.2c-1.3-1.4-2-3-2-4.8c0-2.2,0-4.3,0-6.6c0-17.3,0-34.6,0-51.9c0-0.6,0.1-0.6-0.5-0.6
					c-16.9,0-33.7,0-50.6,0c-0.4,0-0.4,0-0.4,0.4c0,3.3,0,6.6,0,9.9c0,12.2,0,24.4,0,36.7c0,3.9,0,7.9,0,11.8c0,0.8,0.1,1.6,0.4,2.3
					c1,2.1,2.8,3.1,5,3.1c16,0.1,32,0,48,0C-269,339.5-269,339.5-268.9,339.5z M-269.4,326c0,1.4,0,2.7,0,4.1s0,2.8,0,4.1
					c0,0.6,0.1,1.1,0.3,1.7c0.9,2.9,4.4,4.4,7.1,2.9c1.8-1,2.7-2.5,2.7-4.5c0-5.7,0-11.4,0-17.1c0-0.3-0.1-0.4-0.4-0.4
					c-3.1,0-6.2,0-9.3,0c-0.3,0-0.4,0.1-0.4,0.4C-269.4,320.2-269.4,323.1-269.4,326z"/>
				<path id="XMLID_303_" class="st1" d="M-305.2,278.9c4.6,0,9.2,0,13.7,0c0.4,0,0.4,0,0.4,0.4c0,3.5,0,7.1,0,10.6
					c0,0.4,0,0.4-0.4,0.4c-9.2,0-18.3,0-27.6,0c-0.3,0-0.4-0.1-0.4-0.4c0-3.6,0-7.1,0-10.7c0-0.3,0.1-0.4,0.4-0.4
					C-314.4,278.9-309.8,278.9-305.2,278.9L-305.2,278.9z M-305.1,280.5c-4.1,0-8.1,0-12.2,0c-0.3,0-0.4,0.1-0.4,0.4
					c0,2.5,0,5.1,0,7.6c0,0.3,0.1,0.4,0.4,0.4c8.1,0,16.4,0,24.5,0c0.4,0,0.4,0,0.4-0.4c0-2.5,0-5,0-7.5c0-0.4,0-0.4-0.4-0.4
					C-297,280.5-301.1,280.5-305.1,280.5z"/>
				<path id="XMLID_302_" class="st1" d="M-297.9,299.7c-7,0-14,0-21,0c-0.3,0-0.4-0.1-0.4-0.4c0-0.3,0-0.6,0-0.9
					c0-0.3,0.1-0.3,0.3-0.3c1.3,0,2.7,0,4,0c12.6,0,25.2,0,37.9,0c0.6,0,0.6,0,0.6,0.6c0,1,0,1-1,1
					C-284.3,299.7-291.1,299.7-297.9,299.7z"/>
				<path id="XMLID_299_" class="st1" d="M-281.3,278.9c2.1,0,4.2,0,6.2,0c0.3,0,0.4,0.1,0.4,0.4c0,3.6,0,7.1,0,10.7
					c0,0.3-0.1,0.4-0.4,0.4c-4.2,0-8.4,0-12.6,0c-0.3,0-0.4-0.1-0.4-0.4c0-3.6,0-7.1,0-10.7c0-0.3,0.1-0.4,0.4-0.4
					C-285.5,278.9-283.4,278.9-281.3,278.9L-281.3,278.9z M-281.5,288.8L-281.5,288.8c1.6,0,3.2,0,4.8,0c0.3,0,0.4-0.1,0.4-0.4
					c0-2.5,0-5,0-7.6c0-0.3-0.1-0.4-0.4-0.4c-3.1,0-6.3,0-9.4,0c-0.4,0-0.4,0-0.4,0.4c0,2.5,0,5,0,7.4c0,0.3,0.1,0.4,0.4,0.4
					C-284.6,288.8-283,288.8-281.5,288.8z"/>
				<path id="XMLID_298_" class="st1" d="M-299.4,313.1c-6.4,0-12.9,0-19.3,0c-0.5,0-0.5,0-0.5-0.5c0-0.3,0-0.5,0-0.8
					c0-0.3,0.1-0.3,0.3-0.3c1.3,0,2.5,0,3.8,0c11.6,0,23.3,0,34.9,0c0.5,0,0.5,0,0.5,0.5c0,0.2,0,0.4,0,0.6c0.1,0.3-0.1,0.4-0.4,0.4
					c-2.7,0-5.3,0-8,0C-291.8,313.1-295.6,313.1-299.4,313.1L-299.4,313.1z"/>
				<path id="XMLID_297_" class="st1" d="M-300,326.4c-6.2,0-12.3,0-18.5,0c-0.8,0-0.7,0.1-0.7-0.6c0-0.1,0-0.3,0-0.4
					c0-0.4,0-0.4,0.4-0.4c1.1,0,2.3,0,3.5,0c11.3,0,22.7,0,33.9,0c0.4,0,0.4,0,0.4,0.4c0,0.3,0,0.4,0,0.7c0,0.4,0,0.4-0.4,0.4
					c-1.4,0-2.8,0-4.2,0C-290.4,326.4-295.2,326.4-300,326.4L-300,326.4z"/>
				<path id="XMLID_296_" class="st1" d="M-301.7,304.9c5.7,0,11.3,0,16.9,0c0.7,0,0.6-0.1,0.6,0.6c0,1,0,1-1,1
					c-11.2,0-22.4,0-33.6,0c-0.5,0-0.5,0-0.5-0.5c0-0.3,0-0.4,0-0.7c0-0.3,0.1-0.4,0.4-0.4c0.8,0,1.7,0,2.5,0
					C-311.4,304.9-306.6,304.9-301.7,304.9z"/>
				<path id="XMLID_295_" class="st1" d="M-302.5,331.6c5.4,0,10.8,0,16.2,0c0.5,0,0.5,0,0.4,0.5c0,0.3,0,0.4,0,0.7
					c0,0.3-0.1,0.4-0.4,0.4c-2,0-4,0-6,0c-8.7,0-17.5,0-26.2,0c-0.8,0-0.7,0.1-0.7-0.7c0-0.9,0-0.9,0.9-0.9
					C-313.1,331.6-307.8,331.6-302.5,331.6z"/>
				<path id="XMLID_294_" class="st1" d="M-306.6,319.8c-4.1,0-8.1,0-12.2,0c-0.3,0-0.4-0.1-0.4-0.4c0-0.3,0-0.6,0-0.8
					c0-0.3,0.1-0.4,0.4-0.4c1.7,0,3.3,0,5,0c6.5,0,13,0,19.4,0c0.6,0,0.6,0,0.6,0.5c0,0.3,0,0.5,0,0.8c0,0.2-0.1,0.3-0.3,0.3
					c-0.1,0-0.3,0-0.4,0C-298.6,319.8-302.6,319.8-306.6,319.8L-306.6,319.8z"/>
				<path id="XMLID_293_" class="st1" d="M-263.6,325.5c0,0.8,0,0.8-0.8,0.8s-0.8,0-0.8-0.8c0-0.8,0-0.8,0.8-0.8
					C-263.6,324.6-263.6,324.6-263.6,325.5z"/>
				<path id="XMLID_292_" class="st1" d="M-264.5,320c0.8,0,0.8,0,0.8,0.8s0,0.8-0.8,0.8c-0.8,0-0.8,0-0.8-0.8c0,0,0,0,0-0.1
					C-265.2,320-265.2,320-264.5,320z"/>
				<path id="XMLID_291_" class="st1" d="M-263.6,330c0,0.8,0,0.8-0.8,0.8c-0.8,0-0.8,0-0.8-0.8c0-0.8,0-0.8,0.8-0.8
					C-263.6,329.3-263.6,329.3-263.6,330z"/>
				<path id="XMLID_290_" class="st1" d="M-263.6,334.7c0,0.8,0,0.8-0.8,0.8s-0.8,0-0.8-0.8s0-0.8,0.8-0.8c0,0,0,0,0.1,0
					C-263.6,333.9-263.6,333.9-263.6,334.7z"/>
			</g>
		</g>
	</g>
</g>
</svg>
