<?xml version="1.0" encoding="utf-8"?>
<!-- Generator: Adobe Illustrator 19.0.0, SVG Export Plug-In . SVG Version: 6.00 Build 0)  -->
<svg version="1.1" id="Capa_1" xmlns="http://www.w3.org/2000/svg" xmlns:xlink="http://www.w3.org/1999/xlink" x="0px" y="0px"
	 viewBox="0 0 130.5 122.6" style="enable-background:new 0 0 130.5 122.6;" xml:space="preserve">
<metadata><?xpacket begin="﻿" id="W5M0MpCehiHzreSzNTczkc9d"?>
<x:xmpmeta xmlns:x="adobe:ns:meta/" x:xmptk="Adobe XMP Core 5.6-c067 79.157747, 2015/03/30-23:40:42        ">
   <rdf:RDF xmlns:rdf="http://www.w3.org/1999/02/22-rdf-syntax-ns#">
      <rdf:Description rdf:about=""/>
   </rdf:RDF>
</x:xmpmeta>
                                                                                                    
                                                                                                    
                                                                                                    
                                                                                                    
                                                                                                    
                                                                                                    
                                                                                                    
                                                                                                    
                                                                                                    
                                                                                                    
                                                                                                    
                                                                                                    
                                                                                                    
                                                                                                    
                                                                                                    
                                                                                                    
                                                                                                    
                                                                                                    
                                                                                                    
                                                                                                    
                           
<?xpacket end="w"?></metadata>
<style type="text/css">
	.st0{fill:url(#XMLID_120_);}
	.st1{fill:url(#XMLID_121_);}
</style>
<g id="XMLID_257_">
	<g id="XMLID_251_">
		<linearGradient id="XMLID_120_" gradientUnits="userSpaceOnUse" x1="-21.2117" y1="10.0408" x2="117.4789" y2="116.9481">
			<stop  offset="0" style="stop-color:#393883"/>
			<stop  offset="0.1129" style="stop-color:#3A4287"/>
			<stop  offset="0.3211" style="stop-color:#3D5591"/>
			<stop  offset="0.6014" style="stop-color:#426D9E"/>
			<stop  offset="0.9397" style="stop-color:#4B91B2"/>
			<stop  offset="1" style="stop-color:#4D98B6"/>
		</linearGradient>
		<path id="XMLID_241_" class="st0" d="M130.5,111.3h-23.4V106h18c0-1.2,0-2.5,0-3.7c0-2.1,0.1-4.2,0-6.3
			c-0.2-6.5-2.6-11.2-7.3-14.3c-6.5-4.2-13.1-8.4-19.5-12.5c-3.9-2.5-7.9-5-11.8-7.5c-4.8,3.2-9.9,5.2-15.1,6.1
			c-9.8,1.6-19-0.4-27.3-6c0,0-0.1-0.1-0.1-0.1c0,0,0,0-0.1,0c-4.7,3.1-9.5,6.1-14.3,9.1c-5.2,3.3-10.5,6.7-15.8,10.1
			c-5.6,3.6-8.4,8.6-8.4,15.3c0,1.7,0,3.3,0,5l0,2.5c0,0.8,0,1.5,0,2.3h60.5v5.3H0l0-2.7c0-0.8,0-1.7,0-2.5c0-0.8,0-1.6,0-2.4l0-2.5
			c0-1.7,0-3.4,0-5C0.1,87.7,3.7,81,10.9,76.4c5.3-3.4,10.6-6.8,15.8-10.1c4.8-3,9.5-6,14.2-9.1c2-1.3,4-1.3,6.1,0.1
			c7.1,4.8,15,6.5,23.5,5.1c4.5-0.7,8.9-2.5,13-5.3c1.9-1.3,3.8-1.3,5.7-0.1c3.9,2.5,7.9,5,11.8,7.5c6.4,4.1,13.1,8.3,19.6,12.5
			c6.2,4.1,9.5,10.3,9.8,18.6c0.1,2.2,0,4.4,0,6.5c0,2-0.1,4.1,0,6.2L130.5,111.3z M66.2,60.5c-16.6,0-30.3-13.5-30.5-30.1
			c-0.1-8,3.1-15.9,8.9-21.6C50.4,3,58-0.1,66.3,0c7.9,0.1,15.6,3.5,21.1,9.3c5.5,5.8,8.5,13.3,8.3,21.1c0.1,7.8-2.8,15.3-8.3,20.9
			C81.7,57.1,74,60.4,66.2,60.5C66.3,60.5,66.3,60.5,66.2,60.5z M65.8,5.3c-6.6,0-12.8,2.5-17.4,7.2c-4.7,4.7-7.4,11.2-7.3,17.8
			C41.2,44,52.5,55.1,66.2,55.1c0,0,0,0,0.1,0c6.3,0,12.6-2.7,17.2-7.5c4.5-4.6,7-10.7,6.8-17.2l0-0.1l0-0.1
			c0.2-6.5-2.2-12.6-6.8-17.4c-4.6-4.8-10.9-7.6-17.3-7.6C66.1,5.3,65.9,5.3,65.8,5.3z"/>
	</g>
	<linearGradient id="XMLID_121_" gradientUnits="userSpaceOnUse" x1="-20.178" y1="8.6997" x2="118.5126" y2="115.607">
		<stop  offset="0" style="stop-color:#393883"/>
		<stop  offset="0.1129" style="stop-color:#3A4287"/>
		<stop  offset="0.3211" style="stop-color:#3D5591"/>
		<stop  offset="0.6014" style="stop-color:#426D9E"/>
		<stop  offset="0.9397" style="stop-color:#4B91B2"/>
		<stop  offset="1" style="stop-color:#4D98B6"/>
	</linearGradient>
	<polygon id="XMLID_81_" class="st1" points="116.8,82.8 91.2,108.6 86.6,113.3 81.9,108.6 74.6,101.5 69.9,106.3 72.4,108.6 
		81.9,117.9 86.7,122.6 87,122.3 87,122.3 91.4,117.9 100.6,108.6 121.5,87.4 	"/>
</g>
</svg>
