<?xml version="1.0" encoding="utf-8"?>
<!-- Generator: Adobe Illustrator 19.0.0, SVG Export Plug-In . SVG Version: 6.00 Build 0)  -->
<svg version="1.1" id="Capa_1" xmlns="http://www.w3.org/2000/svg" xmlns:xlink="http://www.w3.org/1999/xlink" x="0px" y="0px"
	 viewBox="-331.4 240.1 133.2 133.2" style="enable-background:new -331.4 240.1 133.2 133.2;" xml:space="preserve">
<metadata><?xpacket begin="﻿" id="W5M0MpCehiHzreSzNTczkc9d"?>
<x:xmpmeta xmlns:x="adobe:ns:meta/" x:xmptk="Adobe XMP Core 5.6-c067 79.157747, 2015/03/30-23:40:42        ">
   <rdf:RDF xmlns:rdf="http://www.w3.org/1999/02/22-rdf-syntax-ns#">
      <rdf:Description rdf:about=""/>
   </rdf:RDF>
</x:xmpmeta>
                                                                                                    
                                                                                                    
                                                                                                    
                                                                                                    
                                                                                                    
                                                                                                    
                                                                                                    
                                                                                                    
                                                                                                    
                                                                                                    
                                                                                                    
                                                                                                    
                                                                                                    
                                                                                                    
                                                                                                    
                                                                                                    
                                                                                                    
                                                                                                    
                                                                                                    
                                                                                                    
                           
<?xpacket end="w"?></metadata>
<style type="text/css">
	.st0{fill:url(#XMLID_2_);}
	.st1{fill:url(#XMLID_3_);}
</style>
<g id="XMLID_257_">
	<g id="XMLID_251_">
		
			<linearGradient id="XMLID_2_" gradientUnits="userSpaceOnUse" x1="-351.2107" y1="359.3593" x2="-212.5201" y2="252.452" gradientTransform="matrix(1 0 0 -1 0 614.8)">
			<stop  offset="0" style="stop-color:#393883"/>
			<stop  offset="0.1129" style="stop-color:#3A4287"/>
			<stop  offset="0.3211" style="stop-color:#3D5591"/>
			<stop  offset="0.6014" style="stop-color:#426D9E"/>
			<stop  offset="0.9397" style="stop-color:#4B91B2"/>
			<stop  offset="1" style="stop-color:#4D98B6"/>
		</linearGradient>
		<path id="XMLID_241_" class="st0" d="M-199.5,356.7h-23.4v-5.3h18c0-1.2,0-2.5,0-3.7c0-2.1,0.1-4.2,0-6.3
			c-0.2-6.5-2.6-11.2-7.3-14.3c-6.5-4.2-13.1-8.4-19.5-12.5c-3.9-2.5-7.9-5-11.8-7.5c-4.8,3.2-9.9,5.2-15.1,6.1
			c-9.8,1.6-19-0.4-27.3-6l-0.1-0.1c0,0,0,0-0.1,0c-4.7,3.1-9.5,6.1-14.3,9.1c-5.2,3.3-10.5,6.7-15.8,10.1
			c-5.6,3.6-8.4,8.6-8.4,15.3c0,1.7,0,3.3,0,5v2.5c0,0.8,0,1.5,0,2.3h60.5v5.3H-330V354c0-0.8,0-1.7,0-2.5c0-0.8,0-1.6,0-2.4v-2.5
			c0-1.7,0-3.4,0-5c0.1-8.5,3.7-15.2,10.9-19.8c5.3-3.4,10.6-6.8,15.8-10.1c4.8-3,9.5-6,14.2-9.1c2-1.3,4-1.3,6.1,0.1
			c7.1,4.8,15,6.5,23.5,5.1c4.5-0.7,8.9-2.5,13-5.3c1.9-1.3,3.8-1.3,5.7-0.1c3.9,2.5,7.9,5,11.8,7.5c6.4,4.1,13.1,8.3,19.6,12.5
			c6.2,4.1,9.5,10.3,9.8,18.6c0.1,2.2,0,4.4,0,6.5c0,2-0.1,4.1,0,6.2L-199.5,356.7z M-263.8,305.9c-16.6,0-30.3-13.5-30.5-30.1
			c-0.1-8,3.1-15.9,8.9-21.6c5.8-5.8,13.4-8.9,21.7-8.8c7.9,0.1,15.6,3.5,21.1,9.3s8.5,13.3,8.3,21.1c0.1,7.8-2.8,15.3-8.3,20.9
			C-248.3,302.5-256,305.8-263.8,305.9C-263.7,305.9-263.7,305.9-263.8,305.9z M-264.2,250.7c-6.6,0-12.8,2.5-17.4,7.2
			c-4.7,4.7-7.4,11.2-7.3,17.8c0.1,13.7,11.4,24.8,25.1,24.8c0,0,0,0,0.1,0c6.3,0,12.6-2.7,17.2-7.5c4.5-4.6,7-10.7,6.8-17.2v-0.1
			v-0.1c0.2-6.5-2.2-12.6-6.8-17.4c-4.6-4.8-10.9-7.6-17.3-7.6C-263.9,250.7-264.1,250.7-264.2,250.7z"/>
	</g>
	
		<linearGradient id="XMLID_3_" gradientUnits="userSpaceOnUse" x1="-350.1848" y1="360.6902" x2="-211.4942" y2="253.7829" gradientTransform="matrix(1 0 0 -1 0 614.8)">
		<stop  offset="0" style="stop-color:#393883"/>
		<stop  offset="0.1129" style="stop-color:#3A4287"/>
		<stop  offset="0.3211" style="stop-color:#3D5591"/>
		<stop  offset="0.6014" style="stop-color:#426D9E"/>
		<stop  offset="0.9397" style="stop-color:#4B91B2"/>
		<stop  offset="1" style="stop-color:#4D98B6"/>
	</linearGradient>
	<polygon id="XMLID_81_" class="st1" points="-213.2,328.2 -238.8,354 -243.4,358.7 -248.1,354 -255.4,346.9 -260.1,351.7 
		-257.6,354 -248.1,363.3 -243.3,368 -243,367.7 -243,367.7 -238.6,363.3 -229.4,354 -208.5,332.8 	"/>
</g>
</svg>
