<?xml version="1.0" encoding="utf-8"?>
<!-- Generator: Adobe Illustrator 19.0.0, SVG Export Plug-In . SVG Version: 6.00 Build 0)  -->
<svg version="1.1" id="Capa_1" xmlns="http://www.w3.org/2000/svg" xmlns:xlink="http://www.w3.org/1999/xlink" x="0px" y="0px"
	 viewBox="-519.1 358.7 76.6 76.6" style="enable-background:new -519.1 358.7 76.6 76.6;" xml:space="preserve">
<metadata><?xpacket begin="﻿" id="W5M0MpCehiHzreSzNTczkc9d"?>
<x:xmpmeta xmlns:x="adobe:ns:meta/" x:xmptk="Adobe XMP Core 5.6-c067 79.157747, 2015/03/30-23:40:42        ">
   <rdf:RDF xmlns:rdf="http://www.w3.org/1999/02/22-rdf-syntax-ns#">
      <rdf:Description rdf:about=""/>
   </rdf:RDF>
</x:xmpmeta>
                                                                                                    
                                                                                                    
                                                                                                    
                                                                                                    
                                                                                                    
                                                                                                    
                                                                                                    
                                                                                                    
                                                                                                    
                                                                                                    
                                                                                                    
                                                                                                    
                                                                                                    
                                                                                                    
                                                                                                    
                                                                                                    
                                                                                                    
                                                                                                    
                                                                                                    
                                                                                                    
                           
<?xpacket end="w"?></metadata>
<style type="text/css">
	.st0{fill:#FFFFFF;}
	.st1{fill:#0E2363;}
</style>
<g id="XMLID_609_">
	<g id="XMLID_119_">
		<circle id="XMLID_120_" class="st0" cx="-480.8" cy="397" r="38.3"/>
	</g>
	<g id="SaVBrV_2_">
		<g id="XMLID_244_">
			<path id="XMLID_246_" class="st1" d="M-506.1,416.7c6.2,0.6,11.6-1,16.5-4.7c-2.4-0.2-4.6-0.9-6.5-2.3s-3.2-3.3-4-5.6
				c1.7,0.2,3.3,0.3,4.9-0.2c-2.6-0.7-4.7-2-6.4-4.1s-2.5-4.5-2.5-7.2c0.8,0.3,1.6,0.7,2.4,0.9c0.8,0.2,1.7,0.3,2.5,0.5l0.1-0.1
				c-2.4-1.7-4-4-4.6-6.9c-0.6-2.9-0.2-5.6,1.2-8.2c6.3,7.3,14,11.2,23.5,11.9c0-0.2,0-0.3,0-0.4c-1-4.9,1.4-10,6-12.3
				c2.1-1.1,4.4-1.5,6.8-1.1c2.4,0.4,4.6,1.4,6.3,3.2c0.2,0.2,0.4,0.3,0.7,0.2c2.3-0.5,4.5-1.3,6.5-2.5c0,0,0.1,0,0.2-0.1
				c-0.4,1.3-1,2.4-1.8,3.5c-0.8,1-1.8,1.9-2.9,2.6c2.2-0.2,4.2-0.8,6.2-1.7v0.1c-0.1,0.1-0.1,0.2-0.2,0.3c-1.4,2-3.1,3.7-5,5.2
				c-0.3,0.2-0.4,0.4-0.3,0.7c0.1,2.1-0.1,4.2-0.5,6.3c-1.3,7.6-4.8,14-10.5,19.2c-2.7,2.5-5.8,4.4-9.3,5.7
				c-1.6,0.6-3.1,1.1-4.8,1.4c-3.1,0.6-6.1,0.9-9.2,0.7c-1.5-0.1-3-0.3-4.4-0.6c-3.6-0.7-7-2-10.2-3.9
				C-505.6,417.1-505.9,416.9-506.1,416.7C-506,416.8-506,416.8-506.1,416.7z"/>
		</g>
	</g>
</g>
</svg>
