<?xml version="1.0" encoding="utf-8"?>
<!-- Generator: Adobe Illustrator 19.0.0, SVG Export Plug-In . SVG Version: 6.00 Build 0)  -->
<svg version="1.1" id="Capa_1" xmlns="http://www.w3.org/2000/svg" xmlns:xlink="http://www.w3.org/1999/xlink" x="0px" y="0px"
	 viewBox="0 0 338.7 78.9" style="enable-background:new 0 0 338.7 78.9;" xml:space="preserve">
<style type="text/css">
	.st0{fill:#A4916E;}
	.st1{fill:#50436F;}
</style>
<g id="XMLID_81_">
	<g id="XMLID_119_">
		<path id="XMLID_178_" class="st0" d="M124.9,37.9c0,4.3-2.6,7.6-8,7.6c-5.1,0-7.8-3-7.8-7.6V24.6h2.6v13.4c0,3.3,1.8,5.3,5.4,5.3
			c3.7,0,5.3-2.2,5.3-5.3V24.6h2.6V37.9z"/>
		<path id="XMLID_177_" class="st0" d="M143.3,45.2l-11-17.1h-0.1c0.1,1.4,0.2,3.5,0.2,5.6v11.5H130V24.6h3l11,17h0.1
			c-0.1-0.9-0.2-3.5-0.2-5.4V24.6h2.4v20.6H143.3z"/>
		<polygon id="XMLID_176_" class="st0" points="150,45.2 150.8,42.9 152.4,42.9 152.4,26.9 150,26.9 150,24.6 157.4,24.6 
			156.5,26.9 155,26.9 155,42.9 157.4,42.9 157.4,45.2 		"/>
		<path id="XMLID_175_" class="st0" d="M169.5,45.2h-2.6l-7.4-20.6h2.7l4.6,13.2c0.6,1.7,1,3.1,1.3,4.5c0.3-1.4,0.7-2.8,1.3-4.6
			l4.6-13.2h2.7L169.5,45.2z"/>
		<polygon id="XMLID_174_" class="st0" points="179.8,45.2 179.8,24.6 191.3,24.6 191.3,26.9 182.4,26.9 182.4,33.3 190.1,33.3 
			190.1,35.5 182.4,35.5 182.4,42.9 191.9,42.9 191.1,45.2 		"/>
		<path id="XMLID_171_" class="st0" d="M208.6,30.4c0,3.3-2,4.8-4.1,5.5l5.7,9.2h-3l-5-8.5H198v8.5h-2.6V24.6h5.7
			C206.2,24.6,208.6,26.5,208.6,30.4 M198,26.8v7.6h3.1c3.3,0,4.8-1.3,4.8-3.9c0-2.7-1.6-3.7-5-3.7H198z"/>
		<path id="XMLID_170_" class="st0" d="M218.2,45.5c-2.3,0-4.4-0.3-5.7-1l0.8-2.1c0.9,0.4,2.8,0.9,5,0.9c3.1,0,4.6-1.3,4.6-3.3
			c0-2-1.1-2.9-4.8-4.2c-3.5-1.3-5.3-2.9-5.3-6.1c0-3.3,2.7-5.2,6.6-5.2c2.3,0,4.1,0.5,5.7,1.2l-0.8,2.2c-1.4-0.6-3.1-1.1-4.9-1.1
			c-2.6,0-3.9,1.2-3.9,3c0,2.1,1.2,2.9,4.5,4.2c3.6,1.4,5.6,2.7,5.6,5.9C225.5,43.3,222.7,45.5,218.2,45.5"/>
		<polygon id="XMLID_169_" class="st0" points="228,45.2 228.9,42.9 230.5,42.9 230.5,26.9 228,26.9 228,24.6 235.5,24.6 
			234.6,26.9 233.1,26.9 233.1,42.9 235.5,42.9 235.5,45.2 		"/>
		<path id="XMLID_166_" class="st0" d="M244.9,45.2h-5.7V24.6h6.3c6.2,0,10.2,3.5,10.2,10.1C255.6,41.6,251.6,45.2,244.9,45.2
			 M245.1,26.8h-3.4V43h2.8c5.6,0,8.4-2.8,8.4-8.2C252.9,29.3,250,26.8,245.1,26.8"/>
		<path id="XMLID_163_" class="st0" d="M269.8,38.8h-8.2l-2.5,6.4h-2.6l8-20.7h2.3l8,20.7h-2.7L269.8,38.8z M266.8,30.3
			c-0.2-0.5-0.8-2.4-1-3.1c-0.3,1.2-0.7,2.4-0.9,3.1l-2.3,6.2h6.5L266.8,30.3z"/>
		<path id="XMLID_160_" class="st0" d="M283.7,45.2H278V24.6h6.3c6.2,0,10.2,3.5,10.2,10.1C294.5,41.6,290.5,45.2,283.7,45.2
			 M283.9,26.8h-3.4V43h2.8c5.6,0,8.4-2.8,8.4-8.2C291.7,29.3,288.9,26.8,283.9,26.8"/>
		<path id="XMLID_157_" class="st0" d="M312.3,45.2h-5.7V24.6h6.3c6.2,0,10.2,3.5,10.2,10.1C323,41.6,319,45.2,312.3,45.2
			 M312.5,26.8h-3.4V43h2.8c5.6,0,8.4-2.8,8.4-8.2C320.3,29.3,317.4,26.8,312.5,26.8"/>
		<polygon id="XMLID_156_" class="st0" points="327.2,45.2 327.2,24.6 338.7,24.6 338.7,26.9 329.8,26.9 329.8,33.3 337.5,33.3 
			337.5,35.5 329.8,35.5 329.8,42.9 339.3,42.9 338.5,45.2 		"/>
		<path id="XMLID_155_" class="st0" d="M111.4,60.7h-0.1c0.1,1.4,0.2,3.2,0.2,5.5v12.4h-2.4V58.1h3.8l6.3,16.8h0.1l6.4-16.8h3.8
			v20.5h-2.5V66c0-1.6,0.1-3.4,0.2-5.3H127l-6.8,17.9h-2.1L111.4,60.7z"/>
		<path id="XMLID_152_" class="st0" d="M151.6,73.9c-0.7,1.6-1.8,2.8-3.2,3.7c-1.4,0.9-3.1,1.3-5.1,1.3c-3.1,0-5.5-0.9-7.1-2.8
			c-1.6-1.9-2.4-4.5-2.4-7.7c0-3.2,0.8-5.8,2.4-7.7c1.6-1.9,4-2.8,7.1-2.8c2,0,3.7,0.4,5.1,1.3c1.4,0.9,2.5,2.1,3.2,3.7
			c0.7,1.6,1.1,3.4,1.1,5.6C152.6,70.5,152.3,72.3,151.6,73.9 M138.2,74.5c1.1,1.4,2.8,2.2,5.1,2.2c2.3,0,3.9-0.7,5-2.2
			c1.1-1.4,1.7-3.5,1.7-6.1c0-2.7-0.5-4.7-1.6-6.1c-1.1-1.4-2.8-2.1-5-2.1c-2.3,0-4,0.7-5.1,2.1c-1.1,1.4-1.7,3.5-1.7,6.1
			C136.5,71,137.1,73,138.2,74.5"/>
		<path id="XMLID_151_" class="st0" d="M170.1,78.6l-10.9-17h-0.1c0.2,2.4,0.2,4.2,0.2,5.6v11.4h-2.4V58.1h3l10.9,16.9h0.1
			c-0.1-2.1-0.2-3.9-0.2-5.4V58.1h2.4v20.5H170.1z"/>
		<polygon id="XMLID_150_" class="st0" points="182.6,78.6 182.6,60.4 176.2,60.4 177.1,58.1 191.5,58.1 191.5,60.4 185.2,60.4 
			185.2,78.6 		"/>
		<polygon id="XMLID_149_" class="st0" points="194.6,78.6 194.6,58.1 206.1,58.1 206.1,60.4 197.2,60.4 197.2,66.8 204.9,66.8 
			204.9,69 197.2,69 197.2,76.3 206.7,76.3 205.8,78.6 		"/>
		<path id="XMLID_148_" class="st0" d="M212.4,60.7h-0.1c0.1,1.4,0.2,3.2,0.2,5.5v12.4h-2.4V58.1h3.8l6.3,16.8h0.1l6.4-16.8h3.8
			v20.5H228V66c0-1.6,0.1-3.4,0.2-5.3h-0.1l-6.8,17.9h-2.1L212.4,60.7z"/>
		<path id="XMLID_145_" class="st0" d="M252.6,73.9c-0.7,1.6-1.8,2.8-3.2,3.7c-1.4,0.9-3.1,1.3-5.1,1.3c-3.1,0-5.5-0.9-7.1-2.8
			c-1.6-1.9-2.4-4.5-2.4-7.7c0-3.2,0.8-5.8,2.4-7.7c1.6-1.9,4-2.8,7.1-2.8c2,0,3.7,0.4,5.1,1.3c1.4,0.9,2.5,2.1,3.2,3.7
			c0.7,1.6,1.1,3.4,1.1,5.6C253.7,70.5,253.4,72.3,252.6,73.9 M239.2,74.5c1.1,1.4,2.8,2.2,5.1,2.2c2.3,0,3.9-0.7,5-2.2
			c1.1-1.4,1.7-3.5,1.7-6.1c0-2.7-0.5-4.7-1.6-6.1c-1.1-1.4-2.8-2.1-5-2.1c-2.3,0-4,0.7-5.1,2.1c-1.1,1.4-1.7,3.5-1.7,6.1
			C237.6,71,238.1,73,239.2,74.5"/>
		<path id="XMLID_142_" class="st0" d="M269.3,59.6c1.2,1,1.8,2.4,1.8,4.4c0,2.7-1.4,4.5-4.1,5.5l5.6,9.2h-3l-5-8.4h-4.1v8.4H258
			V58.1h5.6C266.2,58.1,268,58.6,269.3,59.6 M260.6,60.4V68h3.1c1.6,0,2.9-0.3,3.6-1c0.8-0.6,1.2-1.6,1.2-2.9c0-1.3-0.4-2.3-1.2-2.8
			c-0.8-0.6-2-0.9-3.7-0.9H260.6z"/>
		<polygon id="XMLID_141_" class="st0" points="275.8,78.6 275.8,58.1 287.2,58.1 287.2,60.4 278.3,60.4 278.3,66.8 286,66.8 
			286,69 278.3,69 278.3,76.3 287.8,76.3 287,78.6 		"/>
		<polygon id="XMLID_140_" class="st0" points="291.3,58.1 293.9,58.1 293.9,76.3 303.3,76.3 302.4,78.6 291.3,78.6 		"/>
		<path id="XMLID_137_" class="st0" d="M322.5,73.9c-0.7,1.6-1.8,2.8-3.2,3.7c-1.4,0.9-3.1,1.3-5.1,1.3c-3.1,0-5.5-0.9-7.1-2.8
			c-1.6-1.9-2.4-4.5-2.4-7.7c0-3.2,0.8-5.8,2.4-7.7c1.6-1.9,4-2.8,7.1-2.8c2,0,3.7,0.4,5.1,1.3c1.4,0.9,2.5,2.1,3.2,3.7
			c0.7,1.6,1.1,3.4,1.1,5.6C323.6,70.5,323.3,72.3,322.5,73.9 M309.1,74.5c1.1,1.4,2.8,2.2,5.1,2.2c2.3,0,3.9-0.7,5-2.2
			c1.1-1.4,1.7-3.5,1.7-6.1c0-2.7-0.5-4.7-1.6-6.1c-1.1-1.4-2.8-2.1-5-2.1c-2.3,0-4,0.7-5.1,2.1c-1.1,1.4-1.7,3.5-1.7,6.1
			C307.5,71,308,73,309.1,74.5"/>
		<path id="XMLID_123_" class="st0" d="M337.4,77.4c-1.3,1-3.1,1.5-5.3,1.5c-1.1,0-2.2-0.1-3.2-0.3c-1-0.2-1.8-0.4-2.4-0.7l0.8-2.1
			c0.5,0.2,1.2,0.4,2.1,0.6c0.9,0.2,1.8,0.3,2.8,0.3c1.5,0,2.6-0.3,3.4-0.9c0.8-0.6,1.2-1.4,1.2-2.4c0-0.7-0.1-1.2-0.4-1.7
			c-0.3-0.5-0.8-0.9-1.4-1.3c-0.7-0.4-1.7-0.8-2.9-1.3c-1.8-0.6-3.1-1.4-4-2.4c-0.9-0.9-1.3-2.2-1.3-3.7c0-1.6,0.6-2.9,1.8-3.8
			c1.2-0.9,2.8-1.4,4.7-1.4c2,0,3.9,0.4,5.6,1.1l-0.8,2.2c-1.7-0.7-3.3-1.1-4.9-1.1c-1.2,0-2.2,0.3-2.9,0.8c-0.7,0.5-1,1.3-1,2.2
			c0,0.7,0.1,1.3,0.4,1.7c0.3,0.5,0.7,0.9,1.4,1.2c0.6,0.4,1.5,0.7,2.7,1.2c1.3,0.5,2.3,1,3.1,1.5c0.8,0.5,1.4,1.1,1.8,1.8
			c0.4,0.7,0.6,1.6,0.6,2.6C339.3,74.9,338.7,76.3,337.4,77.4"/>
		<path id="XMLID_122_" class="st1" d="M53,57.5L53,57.5c-1.2-3.7-1.3-8.2,2.2-13c2.7-3.8,5.6-7.2,5-13.2c0-0.1,0-0.7,0.6-0.9
			c0.7-0.3,1.1,0.3,1.1,0.3c3.1,5.2,3.8,10.7,2.2,15.1c-2.2,5.8-6.9,7.4-9.3,11.9c-0.2,0.3-0.5,0.5-0.9,0.4
			C53.5,58.2,53.1,57.9,53,57.5"/>
		<path id="XMLID_121_" class="st1" d="M36.5,60.5C26.4,56.6,18,43.4,28.7,29.1c9.3-12.4,15.9-19.5,13.7-28c0-0.2-0.1-0.8,0.4-1
			c0.8-0.4,1.3,0.4,1.3,0.4c5.4,9,0.5,19.6-7.4,31.9c-4.5,6.9-7,17.8,0.8,26.5c0.4,0.5,0.4,0.9,0.1,1.3
			C37.5,60.5,37.1,60.7,36.5,60.5"/>
		<path id="XMLID_120_" class="st1" d="M7.2,67.7c1.4-0.3,6.3-1.2,16.6-3.9c6.4-1.7,13.7-0.5,16.7,2.6c2.7,2.8,3.6,6.1,3.8,6.6
			c0.3,0.8,0.6,2.6,0.6,2.6s1.1-2.9,1.4-3.4c0.2-0.4,1.6-0.4,2.6-3.1c0.8-2,0-4.8-3.6-7.4c-7.9-5.5-8.8-18.9-2-29
			c6.4-9.4,8.6-15.5,7.8-20.4c0-0.1-0.1-0.7,0.5-1c0.6-0.3,1.1,0.2,1.2,0.2C61,22.3,54.5,33,50.6,38.7c-3.8,5.5-5.1,10.3-3.9,15.6
			c0.2,1.2,0.4,2.9,1.5,4.8c1,1.5,2.5,5.6,5,4.7c3.9-1.5,7.8-0.5,14.4,0.9c9.3,2,13.8,2.8,15,3.1c0.4,0.1,0.6,0.4,0.7,0.5
			c0,0.1,6.7,9.2,6.7,9.2s0.4,0.4,0.1,1c-0.2,0.3-0.4,0.6-1.1,0.5c-5.6-1.1-19.6-3.7-25.3-4.6c-7.5-1.1-14.6-0.1-17.8,3.7
			c-0.1,0.2-0.4,0.4-0.8,0.4c-0.4,0-0.7-0.2-0.8-0.4c-3.2-3.8-10.1-4.8-17.3-3.8C21.3,75,7,77.7,1.3,78.8C0.6,79,0.1,78.6,0,78.2
			c-0.1-0.4,0.2-0.8,0.2-0.8L6.7,68C6.7,68,6.8,67.8,7.2,67.7"/>
	</g>
</g>
</svg>
