<?xml version="1.0" encoding="utf-8"?>
<!-- Generator: Adobe Illustrator 19.0.0, SVG Export Plug-In . SVG Version: 6.00 Build 0)  -->
<svg version="1.1" id="Capa_1" xmlns="http://www.w3.org/2000/svg" xmlns:xlink="http://www.w3.org/1999/xlink" x="0px" y="0px"
	 viewBox="0 0 353.7 32.5" style="enable-background:new 0 0 353.7 32.5;" xml:space="preserve">
<metadata><?xpacket begin="﻿" id="W5M0MpCehiHzreSzNTczkc9d"?>
<x:xmpmeta xmlns:x="adobe:ns:meta/" x:xmptk="Adobe XMP Core 5.6-c067 79.157747, 2015/03/30-23:40:42        ">
   <rdf:RDF xmlns:rdf="http://www.w3.org/1999/02/22-rdf-syntax-ns#">
      <rdf:Description rdf:about=""/>
   </rdf:RDF>
</x:xmpmeta>
                                                                                                    
                                                                                                    
                                                                                                    
                                                                                                    
                                                                                                    
                                                                                                    
                                                                                                    
                                                                                                    
                                                                                                    
                                                                                                    
                                                                                                    
                                                                                                    
                                                                                                    
                                                                                                    
                                                                                                    
                                                                                                    
                                                                                                    
                                                                                                    
                                                                                                    
                                                                                                    
                           
<?xpacket end="w"?></metadata>
<style type="text/css">
	.st0{fill:#AA8E6B;}
	.st1{fill:none;}
	.st2{fill:#2C1A47;}
	.st3{fill:#5D4E7C;}
	.st4{fill:#A7895B;}
	.st5{opacity:0.3;}
	.st6{fill:url(#XMLID_159_);}
	.st7{fill:#BFA27D;}
	.st8{fill:url(#XMLID_160_);}
</style>
<g id="XMLID_81_">
	<g id="XMLID_205_">
		<g id="XMLID_259_">
			<path id="XMLID_260_" class="st0" d="M31.6,31.5c-1.1-0.1-1.2-0.3-1.4-5.4c-1.5,1.9-2.3,2.7-3.4,3.5c-2.1,1.5-5.5,2.6-8.3,2.6
				c-3.3,0-7-1.4-9-3.3c-2.2-2.1-3.4-5.6-3.4-9.7c0-0.4,0-1,0.1-1.7v-1.3V6.7c0-4.4-4.9-4-5.1-4.6c-0.2-0.7,6-1.1,9.8-1.8
				c0.8-0.2,1,0.2,1,2.6L11.9,17v1.8c0,6.2,3.7,10.5,9.2,10.5c5.2,0,9.6-3.8,9.1-8.1V21v-14c0.1-5.3-5.2-4.3-5.2-4.9
				c0-0.9,7.5-1.6,10-2.1c0.5-0.1,1.1,0.1,1.1,1.9v4.5c3-3.7,6.8-5.5,11.1-5.5c4.6,0,7.4,1.8,10.1,6.1c3.2-4.2,6.9-6.1,11.7-6.1
				c7.3,0,11.7,5,11.7,13.4v9.2c0,1.8,0.3,3.7,0.8,4.3c0.7,0.9,2.9,1.9,4.5,2.1c0.8,0.1,1,0.3,1,0.8c0,0.5-0.3,0.8-0.9,0.8
				c-0.3,0-13.3,0-13.6,0c-0.6,0-1.1-0.3-1.1-0.8c0-0.3,0.3-0.6,0.7-0.8c2.9-1.1,3-1.3,3-5.8v-8.4c0-3.9-0.6-6.1-2.2-8.2
				c-1.7-2.3-4-3.4-6.6-3.4c-4.1,0-8.2,2.8-8.2,5.4c0,0.2,0,0.6,0.1,1c0.3,1.3,0.3,1.5,0.3,2.8V24c0,4.2,1.1,5.5,5.1,5.9
				c0.9,0.1,1.4,0.4,1.4,0.9c0,0.5-0.4,0.8-1.1,0.8c0,0-13.4,0-13.7,0c-0.5,0-1.1-0.2-1-0.8c0-0.3,0.3-0.5,0.8-0.7
				c2.9-1,3-1.2,3-5.4V13.5c0-5.8-3.2-9.3-8.5-9.3c-4.8,0-8.1,2.7-8.1,6.8v13.5c0,1,0.1,2,0.1,2.9c0.4,2.3,5.4,2.1,5.4,2.5
				c0,0.4-0.1,0.6-0.5,0.7C41.2,30.5,31.7,31.5,31.6,31.5z"/>
		</g>
		<g id="XMLID_206_">
			<g id="XMLID_257_">
				<path id="XMLID_258_" class="st1" d="M289.4,16.4c4.4,0.2,8.7,0.5,13,0.7l-6.7-12.7L289.4,16.4z"/>
			</g>
			<g id="XMLID_255_">
				<path id="XMLID_256_" class="st2" d="M295.8,4.4l6.7,12.7c1.8,0.1,3.6,0.2,5.4,0.3l-9.2-16.6h-5.4l-8.4,15.3
					c1.5,0.1,3.1,0.1,4.6,0.2L295.8,4.4z"/>
			</g>
			<g id="XMLID_253_">
				<path id="XMLID_254_" class="st2" d="M330.5,0.9h-5.1v17.8c1.7,0.1,3.4,0.3,5.1,0.4V0.9z"/>
			</g>
			<g id="XMLID_251_">
				<path id="XMLID_252_" class="st3" d="M310,31.4h5.6l-7.8-13.9c-1.8-0.1-3.6-0.2-5.4-0.3L310,31.4z"/>
			</g>
			<g id="XMLID_249_">
				<path id="XMLID_250_" class="st3" d="M281.5,31.4l7.9-15c-1.5-0.1-3.1-0.1-4.6-0.2l-8.3,15.2H281.5z"/>
			</g>
			<g id="XMLID_247_">
				<path id="XMLID_248_" class="st3" d="M353.7,31.4v-4.3h-23.1v-8c-1.7-0.1-3.4-0.3-5.1-0.4v12.7L353.7,31.4L353.7,31.4z"/>
			</g>
			<g id="XMLID_245_">
				<path id="XMLID_246_" class="st1" d="M172.2,15.6c2.3-0.1,4.5-0.1,6.8-0.2c0.4-0.1,0.7-0.2,0.9-0.4c0.5-0.4,0.7-1.3,0.7-2.5V8
					c0-1.2-0.2-2-0.7-2.5c-0.5-0.5-1.4-0.7-2.6-0.7h-17.5V16c3-0.1,6-0.2,9-0.3v-0.1L172.2,15.6L172.2,15.6z"/>
			</g>
			<g id="XMLID_243_">
				<polygon id="XMLID_244_" class="st2" points="118.9,0.9 109.6,19.2 109.6,19.2 				"/>
			</g>
			<g id="XMLID_241_">
				<path id="XMLID_242_" class="st2" d="M92.5,0.9H87l10.6,19.4c1.6-0.2,3.3-0.3,4.9-0.5L92.5,0.9z"/>
			</g>
			<g id="XMLID_239_">
				<path id="XMLID_240_" class="st2" d="M138.9,0.9h-5.1v16.5c1.7-0.1,3.4-0.2,5.1-0.3V0.9z"/>
			</g>
			<g id="XMLID_237_">
				<path id="XMLID_238_" class="st2" d="M211.6,5h14V0.9h-33.1V5h14v9.8c1.7,0,3.4,0,5.1,0V5z"/>
			</g>
			<g id="XMLID_235_">
				<path id="XMLID_236_" class="st2" d="M266.6,0.9h-5.1v14.5c1.7,0,3.4,0.1,5.1,0.2V0.9z"/>
			</g>
			<g id="XMLID_233_">
				<path id="XMLID_234_" class="st2" d="M239.3,0.9h-5.1v13.9c1.7,0,3.4,0,5.1,0.1V0.9z"/>
			</g>
			<g id="XMLID_231_">
				<path id="XMLID_232_" class="st2" d="M168.8,15.6v0.1c1.1,0,2.3-0.1,3.4-0.1H168.8z"/>
			</g>
			<g id="XMLID_229_">
				<path id="XMLID_230_" class="st2" d="M159.8,4.8h17.5c1.2,0,2.1,0.2,2.6,0.7c0.5,0.5,0.7,1.3,0.7,2.5v4.4c0,1.2-0.2,2-0.7,2.5
					c-0.2,0.2-0.5,0.3-0.9,0.4c2.2-0.1,4.4-0.1,6.6-0.2c0.1-0.5,0.1-1,0.1-1.6V6.8c0-2.1-0.5-3.6-1.5-4.5c-1-0.9-2.7-1.4-4.9-1.4
					h-24.6v15.4c1.7-0.1,3.4-0.2,5.1-0.2L159.8,4.8L159.8,4.8z"/>
			</g>
			<g id="XMLID_227_">
				<path id="XMLID_228_" class="st4" d="M114.6,18.8l9.4-17.9L114.6,18.8z"/>
			</g>
			<g id="XMLID_225_">
				<path id="XMLID_226_" class="st4" d="M114.6,18.8l9.4-17.9h-5l-9.3,18.3C111.3,19,112.9,18.9,114.6,18.8z"/>
			</g>
			<g id="XMLID_223_" class="st5">
				
					<radialGradient id="XMLID_159_" cx="145.7754" cy="332.2176" r="1.9782" gradientTransform="matrix(1.2165 0 0 -1 -1.7385 347.6643)" gradientUnits="userSpaceOnUse">
					<stop  offset="0" style="stop-color:#D0BB91"/>
					<stop  offset="1" style="stop-color:#A98C5D"/>
				</radialGradient>
				<path id="XMLID_224_" class="st6" d="M177.3,15.6c0.7,0,1.2-0.1,1.7-0.2c-2.3,0.1-4.5,0.1-6.8,0.2H177.3z"/>
			</g>
			<g id="XMLID_221_">
				<path id="XMLID_222_" class="st3" d="M103.7,31.4l2.3-5.1l3.6-7.2l0,0l-3.6,7.2l-3.5-6.5c-1.7,0.2-3.3,0.3-4.9,0.5L103.7,31.4
					L103.7,31.4z"/>
			</g>
			<g id="XMLID_219_">
				<path id="XMLID_220_" class="st3" d="M138.9,31.4V17.1c-1.7,0.1-3.4,0.2-5.1,0.3v14H138.9z"/>
			</g>
			<g id="XMLID_217_">
				<path id="XMLID_218_" class="st3" d="M211.6,31.4V14.8c-1.7,0-3.4,0-5.1,0v16.6L211.6,31.4z"/>
			</g>
			<g id="XMLID_215_">
				<path id="XMLID_216_" class="st3" d="M235.7,29.9c1,1,2.9,1.5,5.7,1.5h18.1c2.8,0,4.6-0.5,5.6-1.5c1-1,1.5-2.9,1.5-5.7v-8.7
					c-1.7-0.1-3.4-0.1-5.1-0.2v11.8h-22.2V14.9c-1.7,0-3.4,0-5.1-0.1v9.4C234.2,27,234.7,28.9,235.7,29.9z"/>
			</g>
			<g id="XMLID_213_">
				<path id="XMLID_214_" class="st3" d="M159.8,31.4V16c-1.7,0.1-3.4,0.1-5.1,0.2v15.2L159.8,31.4z"/>
			</g>
			<g id="XMLID_211_">
				<path id="XMLID_212_" class="st3" d="M177.3,15.6h-5.1c-1.1,0-2.3,0.1-3.4,0.1v3.9l12.4,11.9h7.6l-14-11.9h4.5
					c2.2,0,3.9-0.5,4.9-1.4c0.7-0.7,1.2-1.7,1.4-3c-2.2,0.1-4.4,0.1-6.6,0.2C178.5,15.5,178,15.6,177.3,15.6z"/>
			</g>
			<g id="XMLID_209_">
				<path id="XMLID_210_" class="st7" d="M114.6,18.8c-1.7,0.1-3.3,0.3-4.9,0.4l-3.6,7.2l-2.3,5.1h4.3L114.6,18.8z"/>
			</g>
			<g id="XMLID_207_">
				
					<radialGradient id="XMLID_160_" cx="642.877" cy="861.707" r="15.3721" gradientTransform="matrix(-0.7725 0.635 -0.635 -0.7725 1337.7357 275.2214)" gradientUnits="userSpaceOnUse">
					<stop  offset="0" style="stop-color:#D0BB91"/>
					<stop  offset="1" style="stop-color:#A98C5D"/>
				</radialGradient>
				<path id="XMLID_208_" class="st8" d="M275,20.3l-1.3,3.1c17.4-0.3,36.7-3.1,41.3-10.5c-8.3,4.2-21.4,6.9-34.6,7.2
					c-0.4,0-3.6,0.1-3.6,0.1L275,20.3z"/>
			</g>
		</g>
	</g>
</g>
</svg>
